<svg xmlns="http://www.w3.org/2000/svg" xmlns:xlink="http://www.w3.org/1999/xlink" preserveAspectRatio="xMidYMid" width="1080" height="1080" viewBox="0 0 1080 1080">
  <defs>
    <style>
      .cls-1 {
        fill: #350c41;
        opacity: 0.2;
        fill-rule: evenodd;
      }
    </style>
  </defs>
  <path d="M540.000,1080.000 C241.766,1080.000 0.000,838.234 0.000,540.000 C0.000,241.766 241.766,0.000 540.000,0.000 C838.234,0.000 1080.000,241.766 1080.000,540.000 C1080.000,838.234 838.234,1080.000 540.000,1080.000 ZM986.948,238.641 C967.666,210.100 945.522,183.261 921.131,158.870 C896.739,134.478 869.900,112.334 841.359,93.052 C812.545,73.585 781.741,56.866 749.803,43.357 C683.353,15.251 612.765,1.000 540.000,1.000 C467.235,1.000 396.647,15.251 330.197,43.357 C298.259,56.866 267.455,73.585 238.641,93.052 C210.100,112.334 183.260,134.478 158.870,158.870 C134.478,183.261 112.334,210.100 93.052,238.641 C73.585,267.455 56.866,298.259 43.357,330.197 C15.251,396.647 1.000,467.235 1.000,540.000 C1.000,612.765 15.251,683.353 43.357,749.803 C56.866,781.741 73.585,812.545 93.052,841.359 C112.334,869.900 134.478,896.740 158.870,921.131 C183.260,945.522 210.100,967.666 238.641,986.948 C267.455,1006.415 298.259,1023.134 330.197,1036.643 C396.647,1064.749 467.235,1079.000 540.000,1079.000 C612.765,1079.000 683.353,1064.749 749.803,1036.643 C781.741,1023.134 812.545,1006.415 841.359,986.948 C869.900,967.666 896.739,945.522 921.131,921.131 C945.522,896.740 967.666,869.900 986.948,841.359 C1006.415,812.545 1023.134,781.741 1036.643,749.803 C1064.749,683.353 1079.000,612.765 1079.000,540.000 C1079.000,467.235 1064.749,396.647 1036.643,330.197 C1023.134,298.259 1006.415,267.455 986.948,238.641 ZM540.000,1067.293 C248.784,1067.293 12.707,831.216 12.707,540.000 C12.707,248.784 248.784,12.707 540.000,12.707 C831.216,12.707 1067.293,248.784 1067.293,540.000 C1067.293,831.216 831.216,1067.293 540.000,1067.293 ZM976.309,245.813 C957.486,217.951 935.868,191.751 912.058,167.940 C888.247,144.130 862.048,122.513 834.186,103.690 C806.057,84.687 775.987,68.365 744.809,55.178 C679.942,27.742 611.034,13.829 540.000,13.829 C468.966,13.829 400.058,27.742 335.190,55.179 C304.013,68.366 273.942,84.688 245.813,103.691 C217.951,122.515 191.751,144.132 167.940,167.942 C144.130,191.753 122.513,217.953 103.690,245.814 C84.687,273.943 68.365,304.013 55.178,335.191 C27.741,400.058 13.829,468.966 13.829,540.000 C13.829,611.034 27.742,679.942 55.178,744.810 C68.366,775.988 84.688,806.059 103.691,834.187 C122.514,862.049 144.132,888.249 167.942,912.060 C191.753,935.870 217.952,957.487 245.814,976.310 C273.943,995.313 304.013,1011.635 335.191,1024.822 C400.058,1052.258 468.966,1066.171 540.000,1066.171 C611.034,1066.171 679.942,1052.258 744.810,1024.822 C775.987,1011.634 806.058,995.312 834.187,976.309 C862.049,957.486 888.249,935.868 912.060,912.058 C935.870,888.247 957.487,862.048 976.310,834.186 C995.313,806.057 1011.635,775.987 1024.822,744.809 C1052.259,679.942 1066.171,611.034 1066.171,540.000 C1066.171,468.966 1052.258,400.058 1024.822,335.190 C1011.634,304.012 995.312,273.942 976.309,245.813 ZM540.000,1054.585 C255.802,1054.585 25.415,824.198 25.415,540.000 C25.415,255.802 255.802,25.415 540.000,25.415 C824.198,25.415 1054.585,255.802 1054.585,540.000 C1054.585,824.198 824.198,1054.585 540.000,1054.585 ZM965.670,252.985 C947.305,225.802 926.215,200.241 902.985,177.011 C879.755,153.782 854.195,132.692 827.013,114.328 C799.570,95.789 770.233,79.865 739.815,66.999 C676.531,40.232 609.303,26.659 540.000,26.659 C470.697,26.659 403.468,40.232 340.183,67.000 C309.765,79.866 280.428,95.790 252.985,114.330 C225.802,132.695 200.241,153.785 177.011,177.015 C153.782,200.245 132.692,225.805 114.328,252.988 C95.789,280.430 79.865,309.767 66.999,340.185 C40.232,403.469 26.658,470.697 26.658,540.000 C26.658,609.304 40.232,676.532 67.000,739.817 C79.866,770.235 95.790,799.572 114.330,827.015 C132.695,854.198 153.785,879.759 177.015,902.989 C200.245,926.219 225.805,947.308 252.987,965.672 C280.430,984.211 309.767,1000.135 340.185,1013.001 C403.469,1039.768 470.697,1053.342 540.000,1053.342 C609.303,1053.342 676.532,1039.768 739.817,1013.000 C770.235,1000.135 799.572,984.210 827.015,965.670 C854.198,947.305 879.759,926.215 902.989,902.985 C926.218,879.756 947.308,854.195 965.672,827.013 C984.211,799.570 1000.135,770.233 1013.001,739.815 C1039.768,676.531 1053.342,609.303 1053.342,540.000 C1053.342,470.697 1039.768,403.468 1013.000,340.184 C1000.134,309.766 984.210,280.428 965.670,252.985 ZM540.000,1041.878 C262.820,1041.878 38.122,817.180 38.122,540.000 C38.122,262.821 262.820,38.122 540.000,38.122 C817.180,38.122 1041.878,262.821 1041.878,540.000 C1041.878,817.180 817.180,1041.878 540.000,1041.878 ZM955.031,260.157 C937.125,233.654 916.562,208.731 893.912,186.082 C871.263,163.433 846.342,142.871 819.839,124.966 C793.083,106.890 764.479,91.365 734.822,78.820 C673.120,52.723 607.572,39.488 540.000,39.488 C472.427,39.488 406.879,52.723 345.176,78.821 C315.518,91.366 286.914,106.892 260.157,124.969 C233.654,142.875 208.731,163.438 186.082,186.088 C163.433,208.737 142.871,233.658 124.966,260.161 C106.890,286.918 91.364,315.521 78.820,345.178 C52.723,406.880 39.488,472.428 39.488,540.000 C39.488,607.573 52.723,673.121 78.821,734.824 C91.366,764.482 106.892,793.086 124.969,819.843 C142.875,846.346 163.438,871.269 186.088,893.918 C208.737,916.567 233.658,937.129 260.161,955.034 C286.917,973.110 315.521,988.636 345.178,1001.180 C406.880,1027.277 472.428,1040.512 540.000,1040.512 C607.573,1040.512 673.121,1027.277 734.824,1001.179 C764.482,988.634 793.086,973.108 819.843,955.031 C846.346,937.125 871.269,916.562 893.918,893.912 C916.567,871.264 937.129,846.342 955.034,819.839 C973.110,793.083 988.636,764.479 1001.180,734.822 C1027.277,673.120 1040.512,607.572 1040.512,540.000 C1040.512,472.427 1027.277,406.879 1001.179,345.176 C988.634,315.519 973.108,286.914 955.031,260.157 ZM540.000,1029.171 C269.838,1029.171 50.829,810.162 50.829,540.000 C50.829,269.838 269.838,50.829 540.000,50.829 C810.162,50.829 1029.171,269.838 1029.171,540.000 C1029.171,810.162 810.162,1029.171 540.000,1029.171 ZM944.392,267.329 C926.945,241.505 906.909,217.222 884.840,195.153 C862.771,173.085 838.489,153.050 812.666,135.605 C786.595,117.992 758.725,102.864 729.828,90.642 C669.709,65.213 605.841,52.317 540.000,52.317 C474.158,52.317 410.289,65.214 350.170,90.643 C321.271,102.866 293.400,117.994 267.329,135.608 C241.505,153.055 217.221,173.091 195.153,195.160 C173.085,217.229 153.050,241.511 135.605,267.334 C117.992,293.405 102.864,321.275 90.642,350.172 C65.213,410.291 52.317,474.159 52.317,540.000 C52.317,605.842 65.214,669.711 90.643,729.830 C102.866,758.729 117.994,786.600 135.608,812.671 C153.055,838.495 173.091,862.779 195.160,884.848 C217.229,906.915 241.511,926.950 267.334,944.396 C293.405,962.008 321.275,977.136 350.172,989.358 C410.291,1014.787 474.159,1027.683 540.000,1027.683 C605.842,1027.683 669.711,1014.786 729.830,989.357 C758.729,977.134 786.600,962.006 812.671,944.392 C838.495,926.945 862.779,906.909 884.847,884.840 C906.915,862.771 926.950,838.489 944.395,812.666 C962.008,786.596 977.136,758.725 989.358,729.828 C1014.787,669.709 1027.683,605.841 1027.683,540.000 C1027.683,474.158 1014.786,410.289 989.357,350.170 C977.134,321.272 962.006,293.400 944.392,267.329 ZM540.000,1016.464 C276.857,1016.464 63.537,803.144 63.537,540.000 C63.537,276.857 276.857,63.537 540.000,63.537 C803.143,63.537 1016.463,276.857 1016.463,540.000 C1016.463,803.144 803.143,1016.464 540.000,1016.464 ZM933.753,274.502 C916.765,249.356 897.256,225.712 875.767,204.224 C854.279,182.737 830.636,163.229 805.492,146.243 C780.108,129.093 752.971,114.364 724.834,102.463 C666.298,77.704 604.110,65.146 540.000,65.146 C475.889,65.146 413.700,77.704 355.163,102.464 C327.025,114.366 299.887,129.097 274.501,146.247 C249.356,163.235 225.712,182.744 204.223,204.233 C182.737,225.721 163.229,249.364 146.243,274.508 C129.093,299.892 114.364,327.029 102.463,355.166 C77.704,413.702 65.146,475.890 65.146,540.000 C65.146,604.111 77.704,666.301 102.464,724.837 C114.366,752.975 129.097,780.113 146.247,805.499 C163.235,830.644 182.744,854.288 204.233,875.777 C225.721,897.263 249.364,916.771 274.508,933.758 C299.892,950.907 327.029,965.636 355.166,977.537 C413.702,1002.296 475.890,1014.854 540.000,1014.854 C604.111,1014.854 666.301,1002.296 724.837,977.536 C752.975,965.634 780.113,950.903 805.499,933.753 C830.644,916.765 854.288,897.256 875.777,875.767 C897.263,854.279 916.771,830.636 933.757,805.492 C950.907,780.108 965.636,752.971 977.537,724.834 C1002.296,666.298 1014.854,604.110 1014.854,540.000 C1014.854,475.889 1002.296,413.700 977.536,355.163 C965.634,327.025 950.903,299.887 933.753,274.502 ZM540.000,1003.756 C283.875,1003.756 76.244,796.125 76.244,540.000 C76.244,283.875 283.875,76.244 540.000,76.244 C796.125,76.244 1003.756,283.875 1003.756,540.000 C1003.756,796.125 796.125,1003.756 540.000,1003.756 ZM923.114,281.674 C906.585,257.208 887.603,234.202 866.694,213.294 C845.787,192.388 822.783,173.408 798.319,156.881 C773.621,140.195 747.217,125.863 719.840,114.284 C662.887,90.195 602.379,77.976 540.000,77.976 C477.620,77.976 417.110,90.195 360.156,114.286 C332.778,125.866 306.373,140.199 281.673,156.886 C257.208,173.415 234.202,192.397 213.294,213.306 C192.388,234.213 173.408,257.217 156.881,281.681 C140.195,306.379 125.863,332.783 114.284,360.159 C90.194,417.113 77.976,477.621 77.976,540.000 C77.976,602.380 90.195,662.890 114.286,719.844 C125.866,747.222 140.199,773.627 156.886,798.327 C173.415,822.792 192.397,845.798 213.306,866.706 C234.213,887.612 257.217,906.592 281.681,923.119 C306.379,939.805 332.783,954.136 360.160,965.716 C417.113,989.806 477.621,1002.025 540.000,1002.025 C602.380,1002.025 662.890,989.805 719.844,965.714 C747.222,954.134 773.627,939.801 798.327,923.114 C822.792,906.585 845.798,887.603 866.706,866.694 C887.612,845.787 906.592,822.783 923.119,798.319 C939.805,773.621 954.137,747.217 965.716,719.841 C989.806,662.887 1002.024,602.379 1002.024,540.000 C1002.024,477.620 989.805,417.110 965.714,360.156 C954.134,332.778 939.801,306.373 923.114,281.674 ZM540.000,991.049 C290.893,991.049 88.951,789.107 88.951,540.000 C88.951,290.893 290.893,88.951 540.000,88.951 C789.107,88.951 991.049,290.893 991.049,540.000 C991.049,789.107 789.107,991.049 540.000,991.049 ZM912.475,288.846 C896.405,265.059 877.949,242.692 857.621,222.365 C837.295,202.040 814.930,183.587 791.145,167.519 C767.133,151.297 741.463,137.363 714.847,126.105 C659.476,102.685 600.648,90.805 540.000,90.805 C479.350,90.805 420.521,102.686 365.149,126.107 C338.531,137.366 312.859,151.301 288.846,167.525 C265.059,183.596 242.692,202.051 222.365,222.379 C202.040,242.705 183.587,265.070 167.519,288.855 C151.297,312.867 137.363,338.537 126.105,365.153 C102.685,420.524 90.805,479.352 90.805,540.000 C90.805,600.650 102.686,659.480 126.107,714.851 C137.366,741.469 151.301,767.141 167.525,791.154 C183.595,814.941 202.051,837.308 222.379,857.635 C242.705,877.960 265.070,896.413 288.855,912.481 C312.867,928.703 338.537,942.637 365.153,953.895 C420.524,977.315 479.352,989.195 540.000,989.195 C600.650,989.195 659.479,977.314 714.851,953.893 C741.469,942.634 767.141,928.699 791.154,912.475 C814.941,896.405 837.308,877.949 857.635,857.622 C877.960,837.295 896.413,814.930 912.481,791.145 C928.703,767.133 942.637,741.463 953.895,714.847 C977.315,659.476 989.195,600.648 989.195,540.000 C989.195,479.350 977.314,420.520 953.893,365.149 C942.634,338.531 928.699,312.859 912.475,288.846 ZM540.000,978.342 C297.911,978.342 101.658,782.089 101.658,540.000 C101.658,297.911 297.911,101.659 540.000,101.659 C782.089,101.659 978.342,297.911 978.342,540.000 C978.342,782.089 782.089,978.342 540.000,978.342 ZM901.836,296.018 C886.224,272.910 868.296,251.182 848.549,231.436 C828.803,211.691 807.077,193.766 783.972,178.157 C760.646,162.398 735.709,148.863 709.853,137.927 C656.065,115.176 598.917,103.634 540.000,103.634 C481.081,103.634 423.931,115.177 370.142,137.929 C344.284,148.866 319.345,162.403 296.018,178.164 C272.910,193.776 251.182,211.704 231.436,231.452 C211.692,251.197 193.766,272.923 178.157,296.028 C162.398,319.354 148.863,344.291 137.926,370.147 C115.176,423.935 103.634,481.083 103.634,540.000 C103.634,598.919 115.177,656.069 137.929,709.858 C148.866,735.716 162.403,760.655 178.164,783.982 C193.776,807.090 211.704,828.818 231.451,848.564 C251.197,868.309 272.923,886.234 296.028,901.843 C319.354,917.602 344.291,931.137 370.147,942.074 C423.935,964.824 481.083,976.366 540.000,976.366 C598.919,976.366 656.069,964.824 709.858,942.072 C735.716,931.134 760.655,917.597 783.982,901.836 C807.090,886.224 828.818,868.296 848.564,848.549 C868.308,828.803 886.234,807.077 901.843,783.972 C917.602,760.646 931.137,735.709 942.074,709.853 C964.824,656.065 976.366,598.917 976.366,540.000 C976.366,481.081 964.823,423.931 942.071,370.142 C931.134,344.284 917.597,319.345 901.836,296.018 ZM540.000,965.634 C304.929,965.634 114.366,775.071 114.366,540.000 C114.366,304.929 304.929,114.366 540.000,114.366 C775.071,114.366 965.634,304.929 965.634,540.000 C965.634,775.071 775.071,965.634 540.000,965.634 ZM891.197,303.190 C876.044,280.762 858.643,259.673 839.476,240.507 C820.311,221.343 799.224,203.945 776.799,188.795 C754.159,173.500 729.955,160.363 704.859,149.748 C652.654,127.666 597.186,116.463 540.000,116.463 C482.812,116.463 427.341,127.667 375.135,149.750 C350.037,160.366 325.832,173.505 303.190,188.803 C280.762,203.956 259.673,221.357 240.507,240.524 C221.343,259.689 203.945,280.776 188.795,303.201 C173.500,325.841 160.362,350.045 149.748,375.141 C127.666,427.346 116.463,482.814 116.463,540.000 C116.463,597.188 127.667,652.659 149.750,704.865 C160.366,729.963 173.505,754.169 188.803,776.810 C203.956,799.238 221.357,820.327 240.524,839.493 C259.689,858.657 280.776,876.055 303.201,891.205 C325.841,906.500 350.045,919.638 375.141,930.253 C427.346,952.334 482.814,963.537 540.000,963.537 C597.188,963.537 652.659,952.333 704.865,930.250 C729.963,919.634 754.168,906.495 776.810,891.197 C799.238,876.044 820.327,858.643 839.493,839.476 C858.657,820.311 876.055,799.224 891.205,776.799 C906.500,754.159 919.638,729.956 930.252,704.859 C952.334,652.654 963.537,597.186 963.537,540.000 C963.537,482.812 952.333,427.341 930.250,375.135 C919.634,350.037 906.495,325.832 891.197,303.190 ZM540.000,952.927 C311.947,952.927 127.073,768.053 127.073,540.000 C127.073,311.947 311.947,127.073 540.000,127.073 C768.053,127.073 952.927,311.947 952.927,540.000 C952.927,768.053 768.053,952.927 540.000,952.927 ZM880.558,310.362 C865.864,288.613 848.990,268.163 830.403,249.577 C811.819,230.995 791.371,214.124 769.625,199.433 C747.671,184.601 724.202,171.862 699.866,161.569 C649.243,140.157 595.455,129.293 540.000,129.293 C484.543,129.293 430.752,140.158 380.128,161.572 C355.790,171.867 332.318,184.608 310.362,199.442 C288.613,214.136 268.163,231.010 249.577,249.597 C230.995,268.181 214.124,288.629 199.433,310.375 C184.601,332.329 171.862,355.798 161.569,380.134 C140.157,430.757 129.293,484.545 129.293,540.000 C129.293,595.457 140.158,649.248 161.572,699.872 C171.866,724.211 184.608,747.682 199.442,769.638 C214.136,791.387 231.010,811.837 249.597,830.423 C268.181,849.005 288.629,865.876 310.375,880.567 C332.329,895.399 355.798,908.138 380.134,918.431 C430.757,939.843 484.545,950.707 540.000,950.707 C595.457,950.707 649.248,939.842 699.872,918.428 C724.210,908.134 747.682,895.392 769.638,880.558 C791.387,865.864 811.837,848.990 830.423,830.403 C849.005,811.819 865.876,791.371 880.567,769.625 C895.399,747.671 908.138,724.202 918.431,699.866 C939.843,649.243 950.707,595.455 950.707,540.000 C950.707,484.543 939.842,430.752 918.428,380.128 C908.134,355.790 895.392,332.318 880.558,310.362 ZM540.000,940.220 C318.965,940.220 139.780,761.035 139.780,540.000 C139.780,318.965 318.965,139.781 540.000,139.781 C761.035,139.781 940.220,318.965 940.220,540.000 C940.220,761.035 761.035,940.220 540.000,940.220 ZM869.919,317.534 C855.684,296.465 839.337,276.653 821.330,258.648 C803.327,240.646 783.518,224.303 762.452,210.071 C741.184,195.703 718.448,183.362 694.872,173.390 C645.832,152.648 593.724,142.122 540.000,142.122 C486.273,142.122 434.162,152.649 385.121,173.393 C361.543,183.367 338.804,195.710 317.534,210.081 C296.465,224.316 276.653,240.663 258.648,258.670 C240.646,276.673 224.303,296.482 210.071,317.548 C195.703,338.816 183.362,361.552 173.390,385.128 C152.648,434.168 142.122,486.276 142.122,540.000 C142.122,593.727 152.649,645.838 173.393,694.879 C183.367,718.457 195.710,741.196 210.081,762.466 C224.316,783.535 240.663,803.347 258.670,821.352 C276.673,839.354 296.482,855.697 317.548,869.929 C338.816,884.297 361.552,896.638 385.128,906.610 C434.168,927.353 486.276,937.878 540.000,937.878 C593.727,937.878 645.838,927.352 694.879,906.607 C718.457,896.633 741.196,884.290 762.466,869.919 C783.535,855.684 803.347,839.337 821.352,821.330 C839.354,803.327 855.697,783.518 869.929,762.452 C884.297,741.184 896.638,718.448 906.610,694.872 C927.353,645.833 937.878,593.724 937.878,540.000 C937.878,486.273 927.351,434.162 906.607,385.121 C896.633,361.543 884.290,338.804 869.919,317.534 ZM540.000,927.512 C325.983,927.512 152.488,754.017 152.488,540.000 C152.488,325.983 325.983,152.488 540.000,152.488 C754.017,152.488 927.512,325.983 927.512,540.000 C927.512,754.017 754.017,927.512 540.000,927.512 ZM859.281,324.707 C845.504,304.316 829.684,285.143 812.258,267.719 C794.835,250.298 775.665,234.482 755.278,220.709 C734.697,206.805 712.694,194.862 689.878,185.211 C642.421,165.138 591.993,154.951 540.000,154.951 C488.004,154.951 437.573,165.139 390.114,185.214 C367.296,194.867 345.290,206.812 324.706,220.719 C304.316,234.496 285.143,250.316 267.719,267.742 C250.298,285.165 234.482,304.335 220.709,324.722 C206.805,345.304 194.862,367.306 185.211,390.122 C165.138,437.578 154.951,488.007 154.951,540.000 C154.951,591.996 165.139,642.427 185.214,689.886 C194.867,712.704 206.812,734.710 220.719,755.294 C234.496,775.684 250.316,794.857 267.742,812.281 C285.165,829.702 304.335,845.518 324.722,859.291 C345.303,873.195 367.306,885.138 390.122,894.789 C437.579,914.862 488.007,925.049 540.000,925.049 C591.996,925.049 642.427,914.861 689.886,894.786 C712.704,885.133 734.710,873.188 755.294,859.281 C775.684,845.504 794.857,829.684 812.281,812.258 C829.702,794.835 845.518,775.665 859.291,755.278 C873.195,734.697 885.138,712.694 894.789,689.878 C914.862,642.422 925.049,591.993 925.049,540.000 C925.049,488.004 914.861,437.573 894.786,390.114 C885.133,367.296 873.188,345.290 859.281,324.707 ZM540.000,914.805 C333.001,914.805 165.195,746.999 165.195,540.000 C165.195,333.001 333.001,165.195 540.000,165.195 C746.999,165.195 914.805,333.001 914.805,540.000 C914.805,746.999 746.999,914.805 540.000,914.805 ZM848.642,331.879 C835.324,312.167 820.030,293.634 803.185,276.790 C786.343,259.950 767.813,244.661 748.105,231.347 C728.209,217.906 706.940,206.361 684.884,197.032 C639.011,177.629 590.262,167.781 540.000,167.781 C489.735,167.781 440.983,177.630 395.107,197.036 C373.049,206.367 351.777,217.914 331.879,231.359 C312.167,244.676 293.634,259.970 276.790,276.815 C259.950,293.657 244.661,312.188 231.347,331.895 C217.906,351.791 206.361,373.060 197.032,395.116 C177.629,440.990 167.781,489.738 167.781,540.000 C167.781,590.265 177.630,639.017 197.036,684.893 C206.367,706.951 217.914,728.223 231.358,748.122 C244.676,767.833 259.970,786.366 276.815,803.210 C293.657,820.050 312.187,835.339 331.895,848.653 C351.791,862.094 373.060,873.639 395.116,882.968 C440.990,902.372 489.738,912.219 540.000,912.219 C590.265,912.219 639.017,902.370 684.893,882.964 C706.951,873.633 728.223,862.086 748.121,848.642 C767.833,835.324 786.366,820.030 803.210,803.185 C820.050,786.343 835.339,767.813 848.653,748.105 C862.094,728.209 873.639,706.940 882.968,684.884 C902.371,639.011 912.219,590.262 912.219,540.000 C912.219,489.735 902.370,440.983 882.964,395.107 C873.633,373.049 862.086,351.777 848.642,331.879 ZM540.000,902.098 C340.019,902.098 177.902,739.981 177.902,540.000 C177.902,340.019 340.019,177.902 540.000,177.902 C739.981,177.902 902.098,340.019 902.098,540.000 C902.098,739.981 739.981,902.098 540.000,902.098 ZM838.003,339.051 C825.143,320.019 810.377,302.124 794.112,285.861 C777.851,269.602 759.960,254.840 740.932,241.986 C721.722,229.008 701.186,217.861 679.891,208.853 C635.600,190.119 588.531,180.610 540.000,180.610 C491.466,180.610 444.394,190.121 400.100,208.857 C378.802,217.867 358.263,229.017 339.051,241.997 C320.019,254.857 302.124,269.623 285.861,285.888 C269.601,302.149 254.840,320.040 241.985,339.068 C229.008,358.278 217.861,378.814 208.853,400.109 C190.119,444.400 180.610,491.469 180.610,540.000 C180.610,588.534 190.121,635.606 208.857,679.900 C217.867,701.198 229.017,721.737 241.997,740.949 C254.857,759.981 269.623,777.876 285.888,794.139 C302.149,810.399 320.040,825.160 339.068,838.015 C358.278,850.992 378.814,862.139 400.109,871.147 C444.400,889.881 491.469,899.390 540.000,899.390 C588.534,899.390 635.606,889.879 679.900,871.143 C701.198,862.133 721.737,850.983 740.949,838.003 C759.981,825.143 777.876,810.377 794.139,794.112 C810.399,777.851 825.160,759.960 838.015,740.932 C850.992,721.722 862.139,701.186 871.147,679.891 C889.881,635.600 899.390,588.531 899.390,540.000 C899.390,491.466 889.879,444.394 871.143,400.100 C862.133,378.802 850.983,358.263 838.003,339.051 ZM540.000,889.390 C347.037,889.390 190.610,732.963 190.610,540.000 C190.610,347.037 347.037,190.610 540.000,190.610 C732.963,190.610 889.390,347.037 889.390,540.000 C889.390,732.963 732.963,889.390 540.000,889.390 ZM827.364,346.223 C814.963,327.870 800.724,310.614 785.039,294.931 C769.359,279.253 752.107,265.019 733.758,252.623 C715.234,240.109 695.432,229.361 674.897,220.675 C632.189,202.610 586.800,193.439 540.000,193.439 C493.196,193.439 447.804,202.611 405.093,220.679 C384.555,229.367 364.749,240.119 346.223,252.637 C327.870,265.037 310.614,279.276 294.931,294.961 C279.253,310.641 265.019,327.893 252.623,346.242 C240.109,364.766 229.361,384.568 220.675,405.103 C202.610,447.811 193.439,493.200 193.439,540.000 C193.439,586.804 202.611,632.196 220.679,674.907 C229.367,695.445 240.119,715.251 252.636,733.777 C265.037,752.130 279.276,769.386 294.961,785.069 C310.641,800.747 327.893,814.981 346.242,827.377 C364.766,839.891 384.568,850.640 405.103,859.325 C447.811,877.390 493.200,886.561 540.000,886.561 C586.804,886.561 632.196,877.389 674.907,859.321 C695.445,850.633 715.251,839.881 733.777,827.364 C752.130,814.963 769.386,800.724 785.069,785.040 C800.747,769.359 814.981,752.107 827.377,733.758 C839.891,715.234 850.639,695.432 859.325,674.897 C877.390,632.189 886.561,586.800 886.561,540.000 C886.561,493.196 877.389,447.804 859.321,405.094 C850.633,384.555 839.881,364.749 827.364,346.223 ZM540.000,876.683 C354.055,876.683 203.317,725.945 203.317,540.000 C203.317,354.055 354.055,203.317 540.000,203.317 C725.945,203.317 876.683,354.055 876.683,540.000 C876.683,725.945 725.945,876.683 540.000,876.683 ZM816.725,353.395 C804.783,335.722 791.071,319.105 775.967,304.002 C760.867,288.905 744.254,275.198 726.585,263.262 C708.747,251.211 689.678,240.860 669.903,232.496 C628.778,215.101 585.069,206.268 540.000,206.268 C494.927,206.268 451.215,215.102 410.086,232.500 C390.308,240.867 371.236,251.221 353.395,263.275 C335.721,275.217 319.105,288.929 304.002,304.033 C288.905,319.133 275.198,335.746 263.262,353.415 C251.211,371.253 240.860,390.322 232.496,410.097 C215.100,451.222 206.268,494.931 206.268,540.000 C206.268,585.073 215.102,628.785 232.500,669.914 C240.867,689.692 251.221,708.765 263.275,726.605 C275.217,744.279 288.929,760.895 304.033,775.998 C319.133,791.095 335.746,804.802 353.415,816.739 C371.253,828.789 390.322,839.140 410.097,847.504 C451.222,864.900 494.931,873.732 540.000,873.732 C585.073,873.732 628.785,864.898 669.914,847.500 C689.692,839.133 708.764,828.779 726.605,816.725 C744.279,804.783 760.895,791.071 775.998,775.967 C791.095,760.867 804.802,744.254 816.738,726.585 C828.789,708.747 839.140,689.678 847.504,669.903 C864.900,628.778 873.732,585.069 873.732,540.000 C873.732,494.927 864.898,451.215 847.500,410.086 C839.133,390.308 828.779,371.235 816.725,353.395 ZM540.000,863.976 C361.073,863.976 216.024,718.927 216.024,540.000 C216.024,361.073 361.073,216.024 540.000,216.024 C718.927,216.024 863.976,361.073 863.976,540.000 C863.976,718.927 718.927,863.976 540.000,863.976 ZM806.086,360.567 C794.603,343.573 781.418,327.595 766.894,313.073 C752.375,298.556 736.401,285.377 719.411,273.900 C702.260,262.313 683.924,252.360 664.909,244.317 C625.367,227.591 583.338,219.098 540.000,219.098 C496.658,219.098 454.625,227.593 415.080,244.322 C396.061,252.367 377.722,262.323 360.567,273.914 C343.573,285.397 327.595,298.582 313.073,313.106 C298.556,327.625 285.377,343.599 273.900,360.589 C262.313,377.740 252.360,396.076 244.317,415.090 C227.591,454.633 219.098,496.662 219.098,540.000 C219.098,583.342 227.593,625.375 244.322,664.921 C252.367,683.939 262.323,702.278 273.914,719.433 C285.397,736.427 298.582,752.405 313.106,766.927 C327.625,781.444 343.599,794.623 360.589,806.100 C377.740,817.687 396.076,827.640 415.091,835.683 C454.633,852.409 496.662,860.903 540.000,860.903 C583.342,860.903 625.375,852.407 664.920,835.678 C683.939,827.633 702.278,817.677 719.433,806.086 C736.427,794.603 752.405,781.418 766.927,766.894 C781.444,752.375 794.623,736.401 806.100,719.412 C817.687,702.260 827.640,683.924 835.683,664.910 C852.409,625.367 860.902,583.338 860.902,540.000 C860.902,496.658 852.407,454.625 835.678,415.079 C827.633,396.061 817.677,377.722 806.086,360.567 ZM540.000,851.268 C368.091,851.268 228.732,711.909 228.732,540.000 C228.732,368.091 368.091,228.732 540.000,228.732 C711.909,228.732 851.268,368.091 851.268,540.000 C851.268,711.909 711.909,851.268 540.000,851.268 ZM795.447,367.739 C784.423,351.424 771.765,336.085 757.821,322.144 C743.883,308.208 728.548,295.556 712.238,284.538 C695.772,273.414 678.170,263.860 659.916,256.138 C621.956,240.082 581.607,231.927 540.000,231.927 C498.389,231.927 458.036,240.083 420.073,256.143 C401.814,263.867 384.208,273.425 367.739,284.553 C351.424,295.578 336.085,308.235 322.144,322.179 C308.208,336.117 295.556,351.452 284.538,367.762 C273.414,384.228 263.860,401.830 256.138,420.084 C240.082,458.044 231.927,498.393 231.927,540.000 C231.927,581.612 240.083,621.964 256.143,659.928 C263.867,678.186 273.425,695.792 284.553,712.261 C295.577,728.576 308.235,743.915 322.179,757.856 C336.117,771.792 351.452,784.444 367.762,795.462 C384.228,806.586 401.830,816.140 420.084,823.862 C458.044,839.918 498.393,848.073 540.000,848.073 C581.611,848.073 621.964,839.917 659.927,823.857 C678.186,816.133 695.792,806.575 712.261,795.447 C728.576,784.423 743.915,771.765 757.856,757.821 C771.792,743.883 784.444,728.548 795.462,712.238 C806.586,695.772 816.140,678.170 823.862,659.916 C839.918,621.956 848.073,581.607 848.073,540.000 C848.073,498.389 839.917,458.036 823.857,420.073 C816.133,401.814 806.575,384.208 795.447,367.739 ZM540.000,838.561 C375.109,838.561 241.439,704.891 241.439,540.000 C241.439,375.109 375.109,241.439 540.000,241.439 C704.891,241.439 838.561,375.109 838.561,540.000 C838.561,704.891 704.891,838.561 540.000,838.561 ZM784.808,374.912 C774.243,359.276 762.111,344.575 748.749,331.215 C735.391,317.860 720.695,305.735 705.065,295.176 C689.285,284.516 672.417,275.359 654.922,267.959 C618.545,252.572 579.876,244.756 540.000,244.756 C500.119,244.756 461.446,252.574 425.066,267.965 C407.567,275.367 390.694,284.528 374.911,295.192 C359.275,305.757 344.575,317.889 331.215,331.252 C317.859,344.609 305.735,359.305 295.176,374.935 C284.516,390.715 275.359,407.584 267.959,425.078 C252.572,461.455 244.756,500.124 244.756,540.000 C244.756,579.881 252.574,618.554 267.965,654.935 C275.367,672.433 284.528,689.306 295.192,705.089 C305.757,720.724 317.889,735.425 331.252,748.786 C344.609,762.141 359.305,774.265 374.935,784.824 C390.715,795.484 407.584,804.641 425.078,812.041 C461.455,827.428 500.124,835.244 540.000,835.244 C579.881,835.244 618.554,827.426 654.934,812.035 C672.433,804.633 689.306,795.472 705.089,784.808 C720.725,774.243 735.425,762.111 748.785,748.749 C762.141,735.391 774.265,720.695 784.824,705.065 C795.484,689.285 804.641,672.417 812.041,654.922 C827.428,618.545 835.244,579.876 835.244,540.000 C835.244,500.120 827.426,461.446 812.035,425.066 C804.633,407.567 795.472,390.694 784.808,374.912 ZM540.000,825.854 C382.127,825.854 254.146,697.873 254.146,540.000 C254.146,382.127 382.127,254.146 540.000,254.146 C697.873,254.146 825.854,382.127 825.854,540.000 C825.854,697.873 697.873,825.854 540.000,825.854 ZM774.169,382.084 C764.062,367.127 752.458,353.066 739.676,340.285 C726.899,327.511 712.842,315.914 697.891,305.814 C682.798,295.617 666.663,286.859 649.928,279.781 C615.134,265.063 578.145,257.586 540.000,257.586 C501.850,257.586 464.857,265.065 430.059,279.786 C413.320,286.867 397.180,295.630 382.084,305.831 C367.127,315.938 353.065,327.542 340.285,340.324 C327.511,353.101 315.914,367.158 305.814,382.109 C295.617,397.202 286.859,413.338 279.781,430.072 C265.063,464.866 257.585,501.855 257.585,540.000 C257.585,578.150 265.065,615.143 279.786,649.941 C286.867,666.680 295.630,682.820 305.831,697.917 C315.938,712.873 327.542,726.935 340.324,739.715 C353.101,752.489 367.158,764.086 382.109,774.186 C397.202,784.383 413.337,793.141 430.072,800.220 C464.866,814.937 501.855,822.415 540.000,822.415 C578.150,822.415 615.143,814.935 649.941,800.214 C666.680,793.133 682.820,784.370 697.916,774.169 C712.873,764.063 726.934,752.458 739.715,739.676 C752.489,726.899 764.086,712.842 774.186,697.891 C784.383,682.798 793.141,666.663 800.219,649.928 C814.937,615.134 822.415,578.145 822.415,540.000 C822.415,501.850 814.935,464.857 800.214,430.059 C793.133,413.320 784.370,397.180 774.169,382.084 ZM540.000,813.146 C389.146,813.146 266.854,690.855 266.854,540.000 C266.854,389.146 389.146,266.854 540.000,266.854 C690.854,266.854 813.146,389.146 813.146,540.000 C813.146,690.855 690.854,813.146 540.000,813.146 ZM763.530,389.256 C753.882,374.978 742.805,361.556 730.603,349.356 C718.407,337.163 704.989,326.093 690.718,316.452 C676.310,306.719 660.909,298.359 644.935,291.602 C611.723,277.553 576.414,270.414 540.000,270.414 C503.581,270.414 468.267,277.555 435.052,291.608 C419.073,298.368 403.667,306.732 389.256,316.470 C374.978,326.118 361.556,337.195 349.356,349.397 C337.163,361.593 326.093,375.011 316.452,389.282 C306.719,403.690 298.359,419.091 291.602,435.065 C277.553,468.277 270.415,503.586 270.415,540.000 C270.415,576.419 277.556,611.733 291.608,644.948 C298.368,660.927 306.732,676.333 316.470,690.744 C326.118,705.022 337.195,718.444 349.397,730.644 C361.593,742.837 375.011,753.907 389.282,763.548 C403.690,773.281 419.091,781.641 435.065,788.398 C468.277,802.447 503.586,809.585 540.000,809.585 C576.419,809.585 611.733,802.445 644.948,788.393 C660.927,781.633 676.333,773.268 690.744,763.530 C705.022,753.882 718.444,742.805 730.644,730.603 C742.837,718.407 753.907,704.989 763.548,690.718 C773.281,676.310 781.641,660.909 788.398,644.935 C802.447,611.723 809.585,576.414 809.585,540.000 C809.585,503.581 802.444,468.267 788.392,435.052 C781.632,419.073 773.268,403.667 763.530,389.256 ZM540.000,800.439 C396.164,800.439 279.561,683.836 279.561,540.000 C279.561,396.164 396.164,279.561 540.000,279.561 C683.836,279.561 800.439,396.164 800.439,540.000 C800.439,683.836 683.836,800.439 540.000,800.439 ZM752.891,396.428 C743.702,382.830 733.152,370.046 721.530,358.427 C709.915,346.815 697.136,336.272 683.544,327.090 C669.823,317.821 655.155,309.858 639.941,303.423 C608.312,290.044 574.683,283.244 540.000,283.244 C505.312,283.244 471.678,290.046 440.045,303.429 C424.826,309.868 410.153,317.834 396.428,327.109 C382.830,336.298 370.046,346.848 358.427,358.470 C346.814,370.085 336.272,382.864 327.090,396.456 C317.821,410.177 309.858,424.845 303.423,440.059 C290.044,471.688 283.244,505.317 283.244,540.000 C283.244,574.688 290.046,608.322 303.429,639.955 C309.868,655.174 317.834,669.847 327.109,683.572 C336.298,697.170 346.848,709.954 358.470,721.573 C370.085,733.186 382.864,743.728 396.456,752.910 C410.177,762.179 424.845,770.142 440.059,776.577 C471.688,789.956 505.317,796.756 540.000,796.756 C574.688,796.756 608.322,789.954 639.955,776.571 C655.174,770.132 669.847,762.166 683.572,752.891 C697.170,743.702 709.954,733.152 721.573,721.530 C733.186,709.915 743.728,697.136 752.910,683.544 C762.179,669.823 770.142,655.155 776.577,639.941 C789.956,608.312 796.756,574.683 796.756,540.000 C796.756,505.312 789.954,471.678 776.571,440.045 C770.132,424.826 762.166,410.153 752.891,396.428 ZM540.000,787.732 C403.182,787.732 292.268,676.818 292.268,540.000 C292.268,403.182 403.182,292.268 540.000,292.268 C676.818,292.268 787.732,403.182 787.732,540.000 C787.732,676.818 676.818,787.732 540.000,787.732 ZM742.252,403.600 C733.522,390.681 723.499,378.536 712.457,367.498 C701.423,356.466 689.283,346.451 676.371,337.728 C663.336,328.922 649.401,321.358 634.947,315.244 C604.901,302.535 572.952,296.073 540.000,296.073 C507.042,296.073 475.088,302.537 445.038,315.250 C430.579,321.368 416.639,328.936 403.600,337.748 C390.681,346.478 378.536,356.501 367.498,367.543 C356.466,378.577 346.451,390.717 337.728,403.629 C328.922,416.664 321.358,430.599 315.244,445.053 C302.535,475.099 296.073,507.048 296.073,540.000 C296.073,572.958 302.537,604.912 315.250,634.962 C321.368,649.421 328.937,663.361 337.748,676.400 C346.478,689.319 356.501,701.464 367.543,712.502 C378.577,723.534 390.717,733.549 403.629,742.272 C416.664,751.078 430.599,758.642 445.053,764.756 C475.099,777.466 507.048,783.927 540.000,783.927 C572.958,783.927 604.912,777.463 634.962,764.750 C649.421,758.632 663.361,751.064 676.400,742.252 C689.319,733.522 701.464,723.499 712.502,712.457 C723.534,701.423 733.549,689.283 742.272,676.371 C751.078,663.336 758.642,649.401 764.756,634.947 C777.465,604.901 783.927,572.952 783.927,540.000 C783.927,507.043 777.463,475.088 764.750,445.038 C758.632,430.579 751.063,416.639 742.252,403.600 ZM540.000,775.024 C410.200,775.024 304.976,669.801 304.976,540.000 C304.976,410.200 410.200,304.976 540.000,304.976 C669.800,304.976 775.024,410.200 775.024,540.000 C775.024,669.801 669.800,775.024 540.000,775.024 ZM731.613,410.772 C723.342,398.532 713.846,387.027 703.385,376.569 C692.931,366.118 681.430,356.630 669.198,348.366 C656.848,340.024 643.647,332.858 629.954,327.065 C601.490,315.025 571.221,308.902 540.000,308.902 C508.773,308.902 478.498,315.028 450.031,327.072 C436.332,332.868 423.126,340.039 410.772,348.387 C398.532,356.658 387.026,366.154 376.569,376.615 C366.118,387.069 356.630,398.570 348.366,410.803 C340.024,423.152 332.858,436.353 327.065,450.046 C315.025,478.510 308.902,508.779 308.902,540.000 C308.902,571.227 315.028,601.502 327.072,629.969 C332.868,643.668 340.039,656.874 348.387,669.228 C356.658,681.467 366.154,692.974 376.615,703.432 C387.069,713.882 398.570,723.370 410.803,731.634 C423.152,739.976 436.353,747.143 450.046,752.935 C478.510,764.975 508.779,771.098 540.000,771.098 C571.227,771.098 601.502,764.972 629.969,752.928 C643.668,747.132 656.874,739.961 669.228,731.613 C681.468,723.342 692.974,713.846 703.431,703.385 C713.882,692.931 723.370,681.431 731.634,669.198 C739.976,656.848 747.142,643.647 752.935,629.954 C764.975,601.490 771.098,571.221 771.098,540.000 C771.098,508.773 764.972,478.499 752.928,450.031 C747.132,436.332 739.961,423.126 731.613,410.772 ZM540.000,762.317 C417.218,762.317 317.683,662.782 317.683,540.000 C317.683,417.218 417.218,317.683 540.000,317.683 C662.782,317.683 762.317,417.218 762.317,540.000 C762.317,662.782 662.782,762.317 540.000,762.317 ZM720.974,417.944 C713.162,406.384 704.192,395.517 694.312,385.640 C684.439,375.769 673.578,366.809 662.024,359.005 C650.361,351.125 637.893,344.357 624.960,338.887 C598.079,327.516 569.490,321.732 540.000,321.732 C510.504,321.732 481.909,327.518 455.024,338.893 C442.085,344.368 429.612,351.141 417.944,359.026 C406.384,366.838 395.517,375.808 385.639,385.688 C375.769,395.561 366.809,406.423 359.004,417.976 C351.125,429.639 344.357,442.107 338.886,455.040 C327.516,481.921 321.732,510.510 321.732,540.000 C321.732,569.496 327.518,598.091 338.893,624.976 C344.368,637.915 351.141,650.388 359.026,662.056 C366.838,673.616 375.808,684.483 385.688,694.361 C395.561,704.231 406.422,713.191 417.976,720.996 C429.639,728.875 442.107,735.643 455.040,741.114 C481.921,752.484 510.510,758.268 540.000,758.268 C569.496,758.268 598.091,752.482 624.976,741.107 C637.915,735.632 650.388,728.859 662.056,720.974 C673.616,713.162 684.483,704.192 694.361,694.312 C704.231,684.439 713.191,673.578 720.996,662.024 C728.875,650.361 735.643,637.893 741.114,624.960 C752.484,598.079 758.268,569.490 758.268,540.000 C758.268,510.504 752.482,481.909 741.107,455.024 C735.632,442.085 728.859,429.612 720.974,417.944 ZM540.000,749.610 C424.236,749.610 330.390,655.764 330.390,540.000 C330.390,424.236 424.236,330.390 540.000,330.390 C655.764,330.390 749.610,424.236 749.610,540.000 C749.610,655.764 655.764,749.610 540.000,749.610 ZM710.335,425.117 C702.981,414.235 694.539,404.007 685.239,394.710 C675.947,385.421 665.725,376.988 654.851,369.643 C643.874,362.227 632.139,355.857 619.966,350.708 C594.668,340.006 567.759,334.561 540.000,334.561 C512.235,334.561 485.319,340.009 460.017,350.715 C447.838,355.868 436.098,362.243 425.117,369.665 C414.235,377.019 404.007,385.461 394.710,394.761 C385.421,404.053 376.988,414.275 369.642,425.149 C362.227,436.126 355.857,447.861 350.708,460.034 C340.006,485.332 334.561,512.241 334.561,540.000 C334.561,567.765 340.009,594.681 350.715,619.983 C355.868,632.162 362.243,643.902 369.665,654.884 C377.019,665.765 385.461,675.993 394.761,685.290 C404.053,694.579 414.275,703.012 425.149,710.358 C436.126,717.773 447.861,724.143 460.034,729.293 C485.332,739.994 512.241,745.439 540.000,745.439 C567.765,745.439 594.681,739.991 619.983,729.285 C632.162,724.132 643.902,717.757 654.883,710.335 C665.765,702.982 675.993,694.539 685.290,685.239 C694.579,675.947 703.012,665.725 710.358,654.851 C717.773,643.874 724.143,632.139 729.292,619.966 C739.994,594.668 745.439,567.759 745.439,540.000 C745.439,512.235 739.991,485.319 729.285,460.017 C724.132,447.838 717.757,436.098 710.335,425.117 ZM540.000,736.903 C431.254,736.903 343.098,648.746 343.098,540.000 C343.098,431.254 431.254,343.098 540.000,343.098 C648.746,343.098 736.902,431.254 736.902,540.000 C736.902,648.746 648.746,736.903 540.000,736.903 ZM699.696,432.289 C692.801,422.087 684.886,412.497 676.167,403.781 C667.455,395.073 657.872,387.168 647.677,380.281 C637.386,373.329 626.385,367.357 614.972,362.529 C591.257,352.497 566.028,347.390 540.000,347.390 C513.965,347.390 488.730,352.500 465.010,362.536 C453.591,367.368 442.584,373.345 432.289,380.304 C422.086,387.199 412.497,395.114 403.781,403.834 C395.073,412.545 387.167,422.128 380.281,432.323 C373.329,442.614 367.357,453.615 362.529,465.028 C352.497,488.743 347.390,513.972 347.390,540.000 C347.390,566.035 352.500,591.270 362.536,614.990 C367.368,626.409 373.345,637.416 380.304,647.711 C387.199,657.914 395.114,667.503 403.833,676.219 C412.545,684.928 422.128,692.833 432.323,699.719 C442.614,706.671 453.615,712.643 465.028,717.471 C488.743,727.503 513.972,732.610 540.000,732.610 C566.035,732.610 591.270,727.501 614.990,717.464 C626.409,712.632 637.416,706.655 647.711,699.696 C657.914,692.801 667.503,684.886 676.219,676.167 C684.927,667.455 692.833,657.872 699.719,647.677 C706.671,637.386 712.643,626.385 717.471,614.972 C727.503,591.257 732.610,566.028 732.610,540.000 C732.610,513.965 727.500,488.730 717.464,465.010 C712.632,453.591 706.655,442.584 699.696,432.289 ZM540.000,724.195 C438.272,724.195 355.805,641.728 355.805,540.000 C355.805,438.272 438.272,355.805 540.000,355.805 C641.728,355.805 724.195,438.272 724.195,540.000 C724.195,641.728 641.728,724.195 540.000,724.195 ZM689.057,439.461 C682.621,429.938 675.233,420.987 667.094,412.852 C658.963,404.724 650.019,397.346 640.504,390.919 C630.899,384.430 620.631,378.856 609.979,374.350 C587.846,364.987 564.297,360.220 540.000,360.220 C515.696,360.220 492.140,364.990 470.003,374.358 C459.344,378.868 449.071,384.448 439.461,390.943 C429.938,397.379 420.987,404.767 412.852,412.906 C404.724,421.037 397.346,429.981 390.919,439.496 C384.430,449.101 378.856,459.369 374.350,470.022 C364.988,492.154 360.219,515.703 360.219,540.000 C360.219,564.304 364.990,587.860 374.358,609.997 C378.868,620.656 384.448,630.929 390.943,640.539 C397.379,650.062 404.767,659.013 412.906,667.148 C421.037,675.276 429.981,682.654 439.496,689.081 C449.101,695.570 459.369,701.144 470.021,705.650 C492.154,715.012 515.703,719.781 540.000,719.781 C564.304,719.781 587.860,715.010 609.997,705.643 C620.656,701.132 630.929,695.552 640.539,689.057 C650.062,682.621 659.013,675.233 667.148,667.094 C675.276,658.963 682.654,650.019 689.081,640.504 C695.570,630.899 701.144,620.631 705.650,609.979 C715.012,587.847 719.781,564.297 719.781,540.000 C719.781,515.696 715.010,492.141 705.642,470.003 C701.132,459.344 695.552,449.071 689.057,439.461 ZM540.000,711.488 C445.290,711.488 368.512,634.710 368.512,540.000 C368.512,445.290 445.290,368.512 540.000,368.512 C634.710,368.512 711.488,445.290 711.488,540.000 C711.488,634.710 634.710,711.488 540.000,711.488 ZM678.418,446.633 C672.441,437.789 665.580,429.478 658.021,421.923 C650.471,414.376 642.166,407.525 633.331,401.557 C624.411,395.532 614.877,390.356 604.985,386.171 C584.435,377.478 562.566,373.049 540.000,373.049 C517.427,373.049 495.551,377.481 474.996,386.179 C465.097,390.368 455.557,395.550 446.633,401.582 C437.789,407.559 429.478,414.420 421.923,421.979 C414.376,429.529 407.525,437.834 401.557,446.670 C395.532,455.589 390.356,465.123 386.171,475.015 C377.478,495.565 373.049,517.434 373.049,540.000 C373.049,562.573 377.481,584.449 386.179,605.004 C390.368,614.903 395.550,624.443 401.582,633.367 C407.559,642.211 414.420,650.522 421.979,658.077 C429.529,665.624 437.834,672.475 446.669,678.443 C455.589,684.468 465.123,689.644 475.015,693.829 C495.565,702.522 517.434,706.951 540.000,706.951 C562.573,706.951 584.449,702.519 605.004,693.821 C614.903,689.632 624.443,684.450 633.367,678.418 C642.211,672.441 650.522,665.580 658.077,658.021 C665.624,650.471 672.475,642.166 678.443,633.331 C684.468,624.412 689.644,614.878 693.829,604.985 C702.522,584.436 706.951,562.566 706.951,540.000 C706.951,517.427 702.519,495.551 693.821,474.996 C689.632,465.097 684.450,455.557 678.418,446.633 ZM540.000,698.781 C452.308,698.781 381.220,627.692 381.220,540.000 C381.220,452.308 452.308,381.220 540.000,381.220 C627.692,381.220 698.780,452.308 698.780,540.000 C698.780,627.692 627.692,698.781 540.000,698.781 ZM667.779,453.805 C662.261,445.641 655.926,437.968 648.948,430.994 C641.979,424.028 634.313,417.704 626.157,412.195 C617.924,406.633 609.124,401.856 599.991,397.992 C581.024,389.969 560.835,385.878 540.000,385.878 C519.158,385.878 498.961,389.972 479.989,398.001 C470.850,401.868 462.043,406.652 453.805,412.221 C445.641,417.739 437.968,424.074 430.993,431.052 C424.028,438.021 417.704,445.687 412.195,453.843 C406.634,462.076 401.856,470.877 397.992,480.009 C389.969,498.976 385.878,519.165 385.878,540.000 C385.878,560.842 389.972,581.039 398.000,600.011 C401.868,609.150 406.652,617.957 412.221,626.195 C417.739,634.360 424.074,642.032 431.052,649.007 C438.021,655.973 445.687,662.296 453.843,667.805 C462.076,673.367 470.876,678.144 480.009,682.008 C498.976,690.031 519.165,694.122 540.000,694.122 C560.842,694.122 581.039,690.028 600.011,681.999 C609.150,678.132 617.957,673.348 626.195,667.780 C634.359,662.261 642.032,655.927 649.007,648.948 C655.972,641.979 662.296,634.313 667.805,626.157 C673.366,617.924 678.144,609.124 682.008,599.991 C690.031,581.024 694.122,560.835 694.122,540.000 C694.122,519.158 690.028,498.961 682.000,479.990 C678.132,470.850 673.348,462.043 667.779,453.805 ZM540.000,686.073 C459.326,686.073 393.927,620.674 393.927,540.000 C393.927,459.326 459.326,393.927 540.000,393.927 C620.674,393.927 686.073,459.326 686.073,540.000 C686.073,620.674 620.674,686.073 540.000,686.073 ZM657.140,460.977 C652.081,453.492 646.273,446.458 639.876,440.064 C633.487,433.679 626.460,427.883 618.984,422.833 C611.437,417.735 603.370,413.355 594.997,409.814 C577.614,402.459 559.104,398.707 540.000,398.707 C520.888,398.707 502.372,402.463 484.983,409.822 C476.603,413.368 468.529,417.755 460.977,422.860 C453.492,427.919 446.458,433.727 440.064,440.124 C433.679,446.513 427.883,453.540 422.833,461.016 C417.735,468.563 413.355,476.630 409.814,485.003 C402.459,502.387 398.707,520.896 398.707,540.000 C398.707,559.112 402.463,577.628 409.822,595.018 C413.368,603.397 417.754,611.471 422.860,619.023 C427.919,626.508 433.727,633.542 440.124,639.936 C446.513,646.321 453.540,652.117 461.016,657.167 C468.563,662.265 476.630,666.645 485.003,670.186 C502.386,677.541 520.896,681.293 540.000,681.293 C559.112,681.293 577.628,677.538 595.017,670.178 C603.397,666.632 611.471,662.246 619.023,657.140 C626.508,652.081 633.542,646.273 639.936,639.876 C646.321,633.487 652.117,626.460 657.167,618.984 C662.265,611.437 666.645,603.370 670.186,594.998 C677.541,577.614 681.293,559.104 681.293,540.000 C681.293,520.888 677.537,502.372 670.178,484.983 C666.632,476.603 662.246,468.529 657.140,460.977 ZM540.000,673.366 C466.344,673.366 406.634,613.656 406.634,540.000 C406.634,466.344 466.344,406.634 540.000,406.634 C613.656,406.634 673.366,466.344 673.366,540.000 C673.366,613.656 613.656,673.366 540.000,673.366 ZM646.501,468.149 C641.900,461.343 636.620,454.948 630.803,449.135 C624.995,443.331 618.607,438.062 611.810,433.471 C604.950,428.837 597.616,424.855 590.004,421.635 C574.203,414.950 557.373,411.537 540.000,411.537 C522.619,411.537 505.782,414.953 489.976,421.643 C482.356,424.869 475.016,428.857 468.149,433.499 C461.343,438.100 454.948,443.380 449.135,449.197 C443.331,455.005 438.062,461.393 433.471,468.190 C428.837,475.051 424.855,482.384 421.635,489.996 C414.950,505.797 411.537,522.627 411.537,540.000 C411.537,557.381 414.953,574.218 421.644,590.024 C424.869,597.644 428.857,604.984 433.499,611.851 C438.100,618.657 443.380,625.052 449.197,630.865 C455.005,636.669 461.393,641.938 468.190,646.529 C475.050,651.163 482.384,655.145 489.996,658.365 C505.797,665.050 522.627,668.464 540.000,668.464 C557.381,668.464 574.218,665.047 590.024,658.357 C597.644,655.132 604.984,651.143 611.851,646.502 C618.657,641.900 625.052,636.620 630.865,630.803 C636.669,624.995 641.938,618.607 646.529,611.810 C651.163,604.949 655.145,597.616 658.365,590.004 C665.050,574.203 668.463,557.373 668.463,540.000 C668.463,522.619 665.047,505.782 658.356,489.976 C655.131,482.356 651.143,475.016 646.501,468.149 ZM540.000,660.659 C473.362,660.659 419.342,606.638 419.342,540.000 C419.342,473.362 473.362,419.341 540.000,419.341 C606.638,419.341 660.658,473.362 660.658,540.000 C660.658,606.638 606.638,660.659 540.000,660.659 ZM635.863,475.322 C631.720,469.195 626.967,463.439 621.730,458.206 C616.503,452.982 610.754,448.241 604.637,444.109 C598.462,439.938 591.862,436.355 585.010,433.456 C570.792,427.441 555.642,424.366 540.000,424.366 C524.350,424.366 509.193,427.444 494.969,433.465 C488.109,436.369 481.502,439.959 475.322,444.137 C469.195,448.280 463.439,453.033 458.206,458.270 C452.982,463.497 448.241,469.246 444.109,475.363 C439.938,481.538 436.355,488.138 433.456,494.990 C427.440,509.208 424.366,524.358 424.366,540.000 C424.366,555.650 427.444,570.807 433.465,585.031 C436.369,591.891 439.959,598.498 444.137,604.679 C448.280,610.805 453.033,616.561 458.270,621.794 C463.497,627.018 469.246,631.759 475.363,635.891 C481.538,640.062 488.138,643.645 494.990,646.544 C509.208,652.560 524.358,655.634 540.000,655.634 C555.650,655.634 570.807,652.556 585.031,646.535 C591.891,643.631 598.498,640.041 604.678,635.863 C610.805,631.720 616.561,626.967 621.794,621.730 C627.018,616.503 631.759,610.754 635.891,604.637 C640.062,598.462 643.645,591.862 646.544,585.010 C652.560,570.792 655.634,555.642 655.634,540.000 C655.634,524.350 652.556,509.193 646.535,494.969 C643.631,488.109 640.041,481.502 635.863,475.322 ZM540.000,647.951 C480.380,647.951 432.049,599.620 432.049,540.000 C432.049,480.380 480.380,432.049 540.000,432.049 C599.620,432.049 647.951,480.380 647.951,540.000 C647.951,599.620 599.620,647.951 540.000,647.951 ZM625.224,482.494 C621.540,477.046 617.314,471.929 612.657,467.277 C608.011,462.634 602.901,458.420 597.463,454.747 C591.975,451.040 586.108,447.855 580.016,445.277 C567.381,439.931 553.911,437.195 540.000,437.195 C526.081,437.195 512.603,439.935 499.962,445.287 C493.862,447.869 487.988,451.061 482.494,454.776 C477.046,458.460 471.929,462.686 467.277,467.343 C462.634,471.989 458.420,477.099 454.747,482.536 C451.040,488.025 447.854,493.892 445.277,499.984 C439.931,512.619 437.195,526.089 437.195,540.000 C437.195,553.920 439.934,567.397 445.286,580.038 C447.869,586.138 451.061,592.012 454.776,597.506 C458.460,602.954 462.686,608.071 467.343,612.723 C471.989,617.366 477.099,621.580 482.537,625.253 C488.025,628.960 493.892,632.146 499.984,634.723 C512.619,640.069 526.089,642.805 540.000,642.805 C553.919,642.805 567.397,640.066 580.038,634.714 C586.138,632.131 592.012,628.939 597.506,625.224 C602.954,621.540 608.071,617.314 612.723,612.657 C617.366,608.011 621.580,602.901 625.253,597.464 C628.960,591.975 632.146,586.108 634.723,580.016 C640.069,567.381 642.805,553.911 642.805,540.000 C642.805,526.081 640.066,512.603 634.714,499.962 C632.131,493.862 628.939,487.988 625.224,482.494 ZM540.000,635.244 C487.398,635.244 444.756,592.602 444.756,540.000 C444.756,487.398 487.398,444.756 540.000,444.756 C592.602,444.756 635.244,487.398 635.244,540.000 C635.244,592.602 592.602,635.244 540.000,635.244 ZM614.585,489.666 C611.360,484.898 607.661,480.419 603.585,476.347 C599.519,472.286 595.048,468.599 590.290,465.385 C585.487,462.141 580.354,459.354 575.023,457.098 C563.970,452.422 552.180,450.024 540.000,450.024 C527.811,450.024 516.014,452.425 504.955,457.108 C499.615,459.369 494.474,462.163 489.666,465.415 C484.897,468.640 480.419,472.339 476.347,476.415 C472.286,480.481 468.599,484.952 465.385,489.710 C462.141,494.513 459.354,499.646 457.098,504.978 C452.422,516.030 450.024,527.820 450.024,540.000 C450.024,552.189 452.425,563.986 457.108,575.045 C459.369,580.385 462.163,585.526 465.415,590.334 C468.640,595.102 472.339,599.581 476.415,603.653 C480.481,607.714 484.952,611.401 489.710,614.615 C494.513,617.859 499.646,620.646 504.977,622.902 C516.030,627.578 527.820,629.976 540.000,629.976 C552.189,629.976 563.986,627.575 575.045,622.892 C580.385,620.631 585.526,617.837 590.334,614.585 C595.103,611.360 599.581,607.661 603.653,603.585 C607.714,599.519 611.401,595.049 614.615,590.290 C617.859,585.487 620.646,580.354 622.902,575.023 C627.578,563.970 629.976,552.180 629.976,540.000 C629.976,527.811 627.575,516.014 622.892,504.955 C620.631,499.615 617.837,494.474 614.585,489.666 ZM540.000,622.537 C494.416,622.537 457.463,585.584 457.463,540.000 C457.463,494.416 494.416,457.463 540.000,457.463 C585.584,457.463 622.537,494.416 622.537,540.000 C622.537,585.584 585.584,622.537 540.000,622.537 ZM611.081,570.029 C615.088,560.559 617.146,550.449 617.146,540.000 C617.146,529.542 615.084,519.424 611.071,509.948 C609.131,505.368 606.734,500.961 603.946,496.838 C601.180,492.749 598.008,488.909 594.512,485.418 C591.027,481.937 587.196,478.778 583.117,476.023 C579.000,473.243 574.600,470.854 570.029,468.919 C560.559,464.912 550.449,462.854 540.000,462.854 C529.542,462.854 519.424,464.916 509.948,468.929 C505.368,470.869 500.961,473.266 496.838,476.054 C492.749,478.820 488.909,481.993 485.418,485.488 C481.937,488.973 478.778,492.805 476.024,496.883 C473.243,501.000 470.854,505.400 468.919,509.971 C464.912,519.441 462.854,529.551 462.854,540.000 C462.854,550.458 464.916,560.576 468.929,570.052 C470.869,574.632 473.266,579.039 476.054,583.162 C478.820,587.251 481.992,591.091 485.488,594.582 C488.973,598.063 492.804,601.222 496.883,603.977 C501.000,606.757 505.400,609.146 509.971,611.081 C519.441,615.088 529.551,617.146 540.000,617.146 C550.458,617.146 560.576,615.084 570.052,611.071 C574.632,609.131 579.039,606.735 583.162,603.946 C587.251,601.180 591.091,598.008 594.582,594.512 C598.063,591.027 601.222,587.196 603.976,583.117 C606.757,579.000 609.146,574.600 611.081,570.029 ZM540.000,609.829 C501.434,609.829 470.171,578.566 470.171,540.000 C470.171,501.434 501.434,470.171 540.000,470.171 C578.566,470.171 609.829,501.434 609.829,540.000 C609.829,578.566 578.566,609.829 540.000,609.829 ZM599.259,565.035 C602.597,557.148 604.317,548.718 604.317,540.000 C604.317,531.273 602.593,522.835 599.249,514.941 C597.631,511.121 595.632,507.447 593.307,504.010 C591.000,500.600 588.354,497.400 585.439,494.489 C582.535,491.589 579.343,488.957 575.943,486.662 C572.513,484.345 568.846,482.353 565.035,480.741 C557.148,477.403 548.718,475.683 540.000,475.683 C531.273,475.683 522.835,477.407 514.941,480.751 C511.121,482.369 507.447,484.368 504.010,486.693 C500.600,489.001 497.400,491.646 494.489,494.561 C491.589,497.466 488.957,500.657 486.662,504.057 C484.345,507.487 482.353,511.154 480.741,514.965 C477.403,522.852 475.683,531.282 475.683,540.000 C475.683,548.727 477.407,557.166 480.751,565.059 C482.369,568.879 484.368,572.553 486.693,575.990 C489.000,579.400 491.646,582.600 494.561,585.511 C497.465,588.411 500.657,591.043 504.057,593.338 C507.487,595.655 511.154,597.647 514.965,599.260 C522.852,602.597 531.282,604.317 540.000,604.317 C548.727,604.317 557.165,602.594 565.059,599.249 C568.879,597.631 572.553,595.632 575.990,593.307 C579.400,591.000 582.600,588.354 585.511,585.439 C588.411,582.535 591.043,579.343 593.338,575.943 C595.655,572.513 597.647,568.846 599.259,565.035 ZM540.000,597.122 C508.452,597.122 482.878,571.548 482.878,540.000 C482.878,508.453 508.452,482.878 540.000,482.878 C571.548,482.878 597.122,508.453 597.122,540.000 C597.122,571.548 571.548,597.122 540.000,597.122 ZM587.438,560.042 C590.107,553.737 591.488,546.987 591.488,540.000 C591.488,533.004 590.103,526.245 587.428,519.934 C586.131,516.874 584.530,513.933 582.668,511.182 C580.819,508.452 578.701,505.890 576.366,503.560 C574.043,501.241 571.490,499.136 568.770,497.300 C566.025,495.446 563.092,493.853 560.041,492.562 C553.737,489.893 546.987,488.512 540.000,488.512 C533.004,488.512 526.245,489.897 519.934,492.572 C516.874,493.869 513.933,495.470 511.182,497.332 C508.452,499.181 505.890,501.299 503.560,503.634 C501.241,505.957 499.136,508.510 497.300,511.230 C495.446,513.975 493.853,516.908 492.562,519.959 C489.893,526.263 488.512,533.013 488.512,540.000 C488.512,546.996 489.897,553.755 492.572,560.066 C493.869,563.126 495.470,566.067 497.332,568.818 C499.181,571.549 501.299,574.110 503.634,576.440 C505.957,578.760 508.510,580.864 511.230,582.700 C513.975,584.554 516.908,586.147 519.959,587.438 C526.263,590.107 533.013,591.488 540.000,591.488 C546.996,591.488 553.755,590.103 560.066,587.428 C563.126,586.131 566.067,584.530 568.818,582.668 C571.548,580.819 574.110,578.701 576.440,576.366 C578.759,574.043 580.864,571.490 582.700,568.770 C584.554,566.026 586.147,563.092 587.438,560.042 ZM540.000,584.415 C515.471,584.415 495.585,564.529 495.585,540.000 C495.585,515.471 515.471,495.585 540.000,495.585 C564.529,495.585 584.415,515.471 584.415,540.000 C584.415,564.529 564.529,584.415 540.000,584.415 ZM575.617,555.048 C577.616,550.326 578.659,545.256 578.659,540.000 C578.659,534.735 577.612,529.656 575.606,524.927 C574.631,522.627 573.428,520.420 572.029,518.354 C570.639,516.303 569.048,514.380 567.294,512.631 C565.551,510.892 563.637,509.315 561.596,507.938 C559.538,506.548 557.338,505.353 555.048,504.383 C550.326,502.384 545.256,501.342 540.000,501.342 C534.734,501.342 529.656,502.388 524.927,504.394 C522.627,505.369 520.420,506.572 518.354,507.971 C516.303,509.361 514.380,510.952 512.631,512.706 C510.892,514.449 509.315,516.363 507.938,518.403 C506.548,520.462 505.353,522.662 504.383,524.952 C502.384,529.674 501.341,534.744 501.341,540.000 C501.341,545.266 502.388,550.344 504.394,555.073 C505.369,557.373 506.572,559.580 507.971,561.646 C509.361,563.697 510.952,565.620 512.706,567.370 C514.449,569.108 516.363,570.685 518.404,572.062 C520.462,573.452 522.662,574.647 524.952,575.617 C529.674,577.616 534.744,578.658 540.000,578.658 C545.266,578.658 550.344,577.612 555.073,575.606 C557.373,574.631 559.580,573.428 561.646,572.029 C563.697,570.639 565.620,569.048 567.369,567.294 C569.108,565.551 570.685,563.637 572.062,561.596 C573.452,559.538 574.647,557.338 575.617,555.048 ZM540.000,571.707 C522.489,571.707 508.293,557.512 508.293,540.000 C508.293,522.489 522.489,508.293 540.000,508.293 C557.511,508.293 571.707,522.489 571.707,540.000 C571.707,557.512 557.511,571.707 540.000,571.707 ZM565.829,540.000 C565.829,536.465 565.121,533.066 563.785,529.920 C563.131,528.380 562.326,526.906 561.390,525.527 C560.459,524.154 559.395,522.871 558.221,521.701 C557.059,520.544 555.784,519.494 554.423,518.576 C553.051,517.649 551.585,516.853 550.054,516.204 C546.915,514.875 543.525,514.171 540.000,514.171 C536.465,514.171 533.066,514.879 529.920,516.215 C528.380,516.870 526.906,517.675 525.526,518.610 C524.154,519.541 522.870,520.605 521.701,521.779 C520.544,522.942 519.494,524.216 518.576,525.577 C517.650,526.949 516.852,528.416 516.204,529.946 C514.875,533.085 514.171,536.475 514.171,540.000 C514.171,543.535 514.879,546.934 516.215,550.080 C516.869,551.620 517.674,553.094 518.610,554.474 C519.541,555.846 520.605,557.130 521.779,558.299 C522.941,559.456 524.216,560.506 525.577,561.424 C526.949,562.350 528.415,563.148 529.946,563.796 C533.085,565.125 536.475,565.829 540.000,565.829 C543.535,565.829 546.934,565.121 550.080,563.785 C551.620,563.131 553.094,562.326 554.474,561.390 C555.846,560.459 557.130,559.395 558.299,558.221 C559.456,557.059 560.506,555.784 561.424,554.423 C562.350,553.051 563.148,551.585 563.796,550.054 C565.125,546.915 565.829,543.525 565.829,540.000 ZM540.000,559.000 C529.507,559.000 521.000,550.493 521.000,540.000 C521.000,529.507 529.507,521.000 540.000,521.000 C550.493,521.000 559.000,529.507 559.000,540.000 C559.000,550.493 550.493,559.000 540.000,559.000 ZM540.000,527.000 C532.832,527.000 527.000,532.832 527.000,540.000 C527.000,547.168 532.832,553.000 540.000,553.000 C547.168,553.000 553.000,547.168 553.000,540.000 C553.000,532.832 547.168,527.000 540.000,527.000 Z" class="cls-1"/>
</svg>
