<svg xmlns="http://www.w3.org/2000/svg" viewBox="0 0 385 80"><defs><style>.a{fill:#2c2c3c;}</style></defs><title>wisereads</title><path class="a" d="M63.18408,22.74707q0-.48193.55371-.48193l10.689.24121q.33691,0,.38525.13232a1.22876,1.22876,0,0,1,.04834.397l-.12061,4.09277a.62089.62089,0,0,1-.13232.40918.60859.60859,0,0,1-.397.09619L71.562,27.41748l4.59814,16.876,4.57422-21.54639q.07251-.457.6499-.50586l4.57422-.2168a.65146.65146,0,0,1,.67432.50586L91.9292,44.29346l3.80371-17.189-2.98535.313q-.38525,0-.40918-.40967l-.26465-3.97217a.55641.55641,0,0,1,.5293-.5293l10.03906-.48193q.38525.0249.38525.57813v4.40527q0,.5061-.52979.50586h-2.3833L94.481,49.06006a.603.603,0,0,1-.6499.50586l-4.55029.07227a.61662.61662,0,0,1-.67383-.50586L83.52686,28.81348l-4.69434,20.0542a.66069.66069,0,0,1-.6499.50537l-4.30957.19287a.70447.70447,0,0,1-.67383-.50586L66.19336,27.41748l-2.2627.21631q-.5061,0-.50586-.57764Z"/><path class="a" d="M106.94678,49.7583q-.33765,0-.3374-.57764V45.54541q0-.457.38525-.45752h2.88916l.19238-16.82813-3.8999-.40918a.45958.45958,0,0,1-.43359-.52979l.52979-3.97217a.62572.62572,0,0,1,.57764-.50537l7.728-.79443c.17676,0,.28906.04443.33691.13232a1.1176,1.1176,0,0,1,.09668.42139l.313,4.38135-.07227,18.104h2.74414q.38525,0,.38525.45752l-.43311,3.15381a.60145.60145,0,0,1-.15674.373.83344.83344,0,0,1-.4209.1084Zm7.48682-33.12646a2.59557,2.59557,0,0,1-1.22754.48145,12.09036,12.09036,0,0,1-1.8418.12061,8.37018,8.37018,0,0,1-1.63721-.12061,1.8671,1.8671,0,0,1-.90283-.43311,2.94736,2.94736,0,0,1-.55371-2.04639,9.883,9.883,0,0,1,.15674-2.10645,1.8165,1.8165,0,0,1,.58984-.999,3.79755,3.79755,0,0,1,2.44336-.626,19.54965,19.54965,0,0,1,2.27539.084,1.665,1.665,0,0,1,.91455.39746,2.66609,2.66609,0,0,1,.57764,2.022,10.043,10.043,0,0,1-.16846,2.19092A1.83541,1.83541,0,0,1,114.43359,16.63184Z"/><path class="a" d="M139.92773,28.88574q-6.50024-2.21484-9.17236-2.21484-2.8894,0-3.90039,1.42041a2.24586,2.24586,0,0,0-.40918,1.37256,4.66346,4.66346,0,0,0,.19287,1.42041,2.39341,2.39341,0,0,0,.69824,1.05908,7.57,7.57,0,0,0,3.8999,1.42041q2.88867.45776,5.04346.999a11.53376,11.53376,0,0,1,3.4668,1.39648,4.88182,4.88182,0,0,1,1.87793,2.1543,8.42232,8.42232,0,0,1,.56543,3.33447,9.98742,9.98742,0,0,1-.60156,3.59912,7.32549,7.32549,0,0,1-1.70947,2.64844,8.61449,8.61449,0,0,1-6.21094,2.14258,33.89808,33.89808,0,0,1-6.25977-.67432l.40967,1.998q0,.38525-.55371.43359l-4.14111.36133a.91952.91952,0,0,1-1.01074-.939l-.67432-7.15039q0-.43286.57764-.5293l3.75586-.67432q.40869,0,.50537.55371l.28906,1.58887a38.05026,38.05026,0,0,0,5.75391.55371,5.07411,5.07411,0,0,0,3.37012-.95068,3.1533,3.1533,0,0,0,1.10742-2.51611,2.18379,2.18379,0,0,0-1.17969-2.09424,13.92724,13.92724,0,0,0-4.05615-1.04736,40.8044,40.8044,0,0,1-4.97168-1.03516,9.88618,9.88618,0,0,1-3.20166-1.50488q-2.3833-1.78125-2.38379-6.04248a7.95735,7.95735,0,0,1,2.23926-5.92236,9.12409,9.12409,0,0,1,6.66846-2.33545,13.14371,13.14371,0,0,1,5.82617,1.68555l-.45752-1.90186q0-.57788.50537-.626l4.76709-.38525q.38452,0,.38525.55371l-.52979,7.34277Q140.385,28.88574,139.92773,28.88574Z"/><path class="a" d="M162.70166,49.27686a33.0335,33.0335,0,0,1-7.82422.77051q-4.83911,0-7.02979-2.98535-2.28735-3.10547-2.28711-9.84619,0-7.07812,1.9502-10.56885a9.56818,9.56818,0,0,1,7.07764-4.69434,22.29867,22.29867,0,0,1,3.75586-.28906q4.45313,0,6.47607,2.19092,2.02222,2.19067,2.022,6.69238a8.28814,8.28814,0,0,1-1.03516,4.52637,10.0658,10.0658,0,0,1-.91455,1.14307,4.91548,4.91548,0,0,1-2.13086,1.13184,20.76131,20.76131,0,0,1-3.55078.7583,73.37716,73.37716,0,0,1-8.54639.38525q.312,4.0686,1.998,5.53711,1.27588,1.15576,4.42969,1.15527a34.72688,34.72688,0,0,0,5.89844-.50537l.07178-1.252a.58222.58222,0,0,1,.13281-.38525.99.99,0,0,1,.397-.16846l3.4668-.77051a.52544.52544,0,0,1,.60205.45752q.07178.41016.144,1.60107.07251,1.19165.14453,2.05811.07251.86719.12061,1.66162l.09619,1.34814q.02344.60132.02393,1.01074,0,.72217-1.05908.84277l-3.99658.48145a.46805.46805,0,0,1-.5293-.52979Zm-1.48047-17.05664a9.93116,9.93116,0,0,0,.13232-1.7334,7.78451,7.78451,0,0,0-.18066-1.76953,3.36748,3.36748,0,0,0-.61377-1.32422,3.71865,3.71865,0,0,0-3.05762-1.15527q-4.09277,0-5.46484,2.07031-1.3,1.92627-1.44434,6.64453,8.40161-.12012,9.87061-1.44434A2.22513,2.22513,0,0,0,161.22119,32.22021Z"/><path class="a" d="M186.11621,49.71045q-.38525,0-.38477-.57812V44.96777q0-.5061.5293-.50586h2.81689V28.16357l-3.44287.28906q-.38525-.02417-.48145-.57812l-.5293-5.12744a.57063.57063,0,0,1,.57764-.50586l7.39063-.50537q.43359,0,.43359.55371l-.36133,3.97217a13.83343,13.83343,0,0,1,7.99268-3.99658,15.872,15.872,0,0,1,3.05762-.3125q1.46851,0,1.5166.77l.28906,8.81152q0,.43286-.36133.48145l-4.52588.33691a.92114.92114,0,0,1-.45752-.09619q-.16846-.09595-.16846-.50586V27.48975a18.45773,18.45773,0,0,0-5.51318,1.25146l-.26465,15.88916,4.189-.313q.38452,0,.40918.40967l.26514,3.97217a.5573.5573,0,0,1-.52979.52979Z"/><path class="a" d="M226.21387,49.27686a33.025,33.025,0,0,1-7.82422.77051q-4.83838,0-7.0293-2.98535-2.28809-3.10547-2.28711-9.84619,0-7.07812,1.9502-10.56885a9.56908,9.56908,0,0,1,7.07813-4.69434,22.28664,22.28664,0,0,1,3.75488-.28906q4.45459,0,6.47656,2.19092,2.02148,2.19067,2.02246,6.69238a8.29245,8.29245,0,0,1-1.03516,4.52637,10.24283,10.24283,0,0,1-.915,1.14307,4.91849,4.91849,0,0,1-2.13086,1.13184,20.76131,20.76131,0,0,1-3.55078.7583,73.38656,73.38656,0,0,1-8.54687.38525q.31348,4.0686,1.998,5.53711,1.27588,1.15576,4.42969,1.15527a34.71834,34.71834,0,0,0,5.89844-.50537l.07227-1.252a.57964.57964,0,0,1,.13281-.38525.9863.9863,0,0,1,.39746-.16846l3.4668-.77051a.525.525,0,0,1,.60156.45752q.07178.41016.14453,1.60107.07178,1.19165.14453,2.05811.07178.86719.12012,1.66162l.09668,1.34814q.02344.60132.02344,1.01074,0,.72217-1.05957.84277l-3.99609.48145a.46825.46825,0,0,1-.5293-.52979ZM224.7334,32.22021a9.927,9.927,0,0,0,.13281-1.7334,7.81232,7.81232,0,0,0-.18066-1.76953,3.36135,3.36135,0,0,0-.61426-1.32422,3.71651,3.71651,0,0,0-3.05664-1.15527q-4.09424,0-5.46484,2.07031-1.30078,1.92627-1.44531,6.64453,8.40234-.12012,9.87109-1.44434A2.22174,2.22174,0,0,0,224.7334,32.22021Z"/><path class="a" d="M250.124,21.71143q7.12646,0,7.126,8.85986,0,2.094-.09668,5.4165l-.168,4.71875q-.04834,1.4209-.12012,2.69629l-.09668,2.28711,1.44434-.12061q.79395-.04761,1.80566-.14453.50537,0,.50586.45752l-.43359,3.80371a.53826.53826,0,0,1-.5293.48145l-6.958.43359q-.33691,0-.33691-.52979l.33691-2.81641a14.0014,14.0014,0,0,1-8.73926,3.10547,8.732,8.732,0,0,1-6.06641-2.14258,7.7666,7.7666,0,0,1-2.52832-6.09082q0-4.9834,3.44336-7.00586,3.03369-1.78125,9.99023-1.78125,1.4458,0,3.082.07178.02344-.62549.02441-1.15527v-.915q0-4.69409-4.11719-4.69434a14.4757,14.4757,0,0,0-5.2959,1.2998l.0957.915q.04834.45776.04785.72217a.46825.46825,0,0,1-.5293.52979l-4.06836.07227a.53874.53874,0,0,1-.48145-.52979l-.40918-6.88525a.57164.57164,0,0,1,.5293-.6499l4.02051-.52979q.50537,0,.50586.52979v1.998A16.59931,16.59931,0,0,1,250.124,21.71143ZM245.5498,45.81006a14.2681,14.2681,0,0,0,6.09082-1.58887q.04834-1.58862.06055-3.50293.01172-1.91382.05957-3.7915-6.33105,0-8.78711,1.0835a3.46,3.46,0,0,0-2.2627,3.37012Q240.71094,45.81079,245.5498,45.81006Z"/><path class="a" d="M275.68066,15.356q-.48193,0-.48145-.57764l.24121-3.85205a.48831.48831,0,0,1,.55371-.48145l8.25684.45752q.43359.04834.43359.55371V45.25635l2.52832-.26465c.32031,0,.48145.15283.48145.45752l-.43359,3.73145a.57964.57964,0,0,1-.55371.48145l-5.9707.96289q-.457,0-.457-.5293l.19238-2.38379A19.35073,19.35073,0,0,1,273.2373,49.373a12.79584,12.79584,0,0,1-5.13965-.8667,7.45247,7.45247,0,0,1-3.1543-2.59961q-2.1665-3.20215-2.166-10.59277,0-10.6897,5.5127-12.9043a13.80839,13.80839,0,0,1,5.03125-.74609,18.87527,18.87527,0,0,1,6.7168,1.34814l-.3125-7.5835Zm4.502,12.543a24.74039,24.74039,0,0,0-5.62109-.84277,12.45089,12.45089,0,0,0-3.32227.33691,3.57164,3.57164,0,0,0-1.86621,1.27637q-1.396,1.80542-1.39648,6.90918,0,5.08008,1.10742,6.88525,1.2041,1.94971,4.59863,1.9502a21.35783,21.35783,0,0,0,5.99414-.939Z"/><path class="a" d="M308.97949,28.88574Q302.48,26.6709,299.80762,26.6709q-2.88867,0-3.90039,1.42041a2.249,2.249,0,0,0-.40918,1.37256,4.69483,4.69483,0,0,0,.19238,1.42041,2.4059,2.4059,0,0,0,.69824,1.05908,7.57579,7.57579,0,0,0,3.90039,1.42041q2.88867.45776,5.04395.999a11.54444,11.54444,0,0,1,3.4668,1.39648,4.87946,4.87946,0,0,1,1.877,2.1543,8.421,8.421,0,0,1,.56641,3.33447,9.97637,9.97637,0,0,1-.60254,3.59912,7.32445,7.32445,0,0,1-1.709,2.64844,8.6129,8.6129,0,0,1-6.21094,2.14258,33.89382,33.89382,0,0,1-6.25977-.67432l.40918,1.998q0,.38525-.55371.43359l-4.14062.36133a.91928.91928,0,0,1-1.01074-.939l-.6748-7.15039c0-.28857.19336-.46533.57813-.5293l3.75586-.67432q.40869,0,.50586.55371l.28809,1.58887a38.05585,38.05585,0,0,0,5.75391.55371,5.07791,5.07791,0,0,0,3.37109-.95068,3.15631,3.15631,0,0,0,1.10742-2.51611,2.18379,2.18379,0,0,0-1.17969-2.09424,13.93653,13.93653,0,0,0-4.05664-1.04736,40.7844,40.7844,0,0,1-4.97168-1.03516,9.89886,9.89886,0,0,1-3.20215-1.50488q-2.3833-1.78125-2.38281-6.04248a7.95863,7.95863,0,0,1,2.23828-5.92236,9.12608,9.12608,0,0,1,6.66895-2.33545A13.142,13.142,0,0,1,304.791,23.397l-.457-1.90186q0-.57788.50488-.626l4.7666-.38525q.38525,0,.38574.55371l-.53027,7.34277C309.44531,28.71729,309.28418,28.88574,308.97949,28.88574Z"/><path class="a" d="M329.627,24.04688a7.2456,7.2456,0,0,1,2.59961-1.74561,10.20315,10.20315,0,0,1,3.83984-.6377,21.08928,21.08928,0,0,1,5.06836.69824l4.52539-.84277a.53911.53911,0,0,1,.48145.52979l.40918,8.57031q-.04834.57788-.5293.6499l-4.02051.52979q-.50537,0-.50586-.52979V27.20068a14.42337,14.42337,0,0,0-3.29785-.36133,7.7349,7.7349,0,0,0-3.09375.57813,4.5671,4.5671,0,0,0-2.082,1.7334q-1.30078,2.02222-1.2998,6.95752,0,7.415,3.0332,8.44971a6.67763,6.67763,0,0,0,2.21484.3374,21.815,21.815,0,0,0,4.14063-.45752l.09668-1.66113c.03125-.38525.2002-.59375.50488-.626l3.80371.14453q.33691.04834.38574.55371l.43359,7.53516q0,.50537-.48242.50586h-4.62207q-.36035,0-.40918-.45752l.07227-1.37256q-8.71582,1.70947-11.96484-2.43115-2.31152-2.98535-2.31152-9.65381a41.7993,41.7993,0,0,1,.38574-6.64453,18.50551,18.50551,0,0,1,.98633-3.68359A8.32061,8.32061,0,0,1,329.627,24.04688Z"/><path class="a" d="M350.2168,35.8916a28.67734,28.67734,0,0,1,.68652-6.84912,10.99811,10.99811,0,0,1,2.03418-4.36963q2.50342-2.96118,8.16113-2.96143a15.38823,15.38823,0,0,1,5.76563.79492,9.66563,9.66563,0,0,1,2.86523,1.80518,8.71046,8.71046,0,0,1,1.793,2.6001,19.60346,19.60346,0,0,1,1.49316,8.17334,32.23746,32.23746,0,0,1-.68652,7.5957,10.58156,10.58156,0,0,1-2.05762,4.28516q-2.55322,2.93774-8.25781,2.937-5.9707,0-8.69141-2.88867Q350.2168,43.74023,350.2168,35.8916Zm16.39453,7.4873a6.8053,6.8053,0,0,0,1.084-2.69678,21.18641,21.18641,0,0,0,.36133-4.23682,24.77318,24.77318,0,0,0-.26562-4.04443,10.4466,10.4466,0,0,0-.73437-2.564,4.89781,4.89781,0,0,0-1.11914-1.61328,4.41605,4.41605,0,0,0-1.41992-.87842,8.891,8.891,0,0,0-3.05762-.43359,12.70655,12.70655,0,0,0-3.0332.28906,3.426,3.426,0,0,0-1.87793,1.22754q-1.4209,1.83032-1.4209,7.36719,0,7.87207,4.2373,8.8833a12.003,12.003,0,0,0,2.81641.313,9.24386,9.24386,0,0,0,2.6123-.3252A3.45665,3.45665,0,0,0,366.61133,43.37891Z"/><path class="a" d="M383.01953,44.811a5.87339,5.87339,0,0,1,.4209,1.36035,7.54123,7.54123,0,0,1,.13281,1.34814,1.768,1.768,0,0,1-.42187,1.14355,3.22262,3.22262,0,0,1-1.11914.85449,6.40819,6.40819,0,0,1-2.793.69824,2.9934,2.9934,0,0,1-1.85352-.42139,3.19925,3.19925,0,0,1-.81836-1.04736,5.27068,5.27068,0,0,1-.60254-2.37109,2.32353,2.32353,0,0,1,.53027-1.69727,3.87237,3.87237,0,0,1,1.2998-.84277,7.35109,7.35109,0,0,1,2.63574-.50537,2.85985,2.85985,0,0,1,1.80566.42139A3.00452,3.00452,0,0,1,383.01953,44.811Z"/><path class="a" d="M69.856,56.35254q.20288,0,.20264.25879l-.18018,5.43652.66406-.23633a8.12628,8.12628,0,0,1,2.583-.46143,5.22649,5.22649,0,0,1,2.12744.40479,3.44972,3.44972,0,0,1,1.48,1.22705,8.89086,8.89086,0,0,1,1.01318,4.8623,8.64164,8.64164,0,0,1-1.13672,4.96924,3.98743,3.98743,0,0,1-3.478,1.59229,9.1553,9.1553,0,0,1-3.14014-.52881,5.54863,5.54863,0,0,1-1.99219.6416q-.37134,0-.37158-.42773V58.89648l-1.64307-.09033a.20765.20765,0,0,1-.2251-.21387L65.624,56.84766a.26946.26946,0,0,1,.25879-.2251Zm4.11963,7.64258a4.43253,4.43253,0,0,0-1.59277-.21387,8.81947,8.81947,0,0,0-2.53809.4502L69.98,71.85107a11.30754,11.30754,0,0,0,2.31836.29248,4.471,4.471,0,0,0,1.49121-.19678,1.80608,1.80608,0,0,0,.87256-.68115,6.19847,6.19847,0,0,0,.65283-3.354,6.809,6.809,0,0,0-.51807-3.21875A1.7289,1.7289,0,0,0,73.97559,63.99512Z"/><path class="a" d="M87.99707,74.2373a15.46628,15.46628,0,0,1-3.6582.35986,3.8022,3.8022,0,0,1-3.28613-1.39551,7.84136,7.84136,0,0,1-1.06934-4.60352,10.43654,10.43654,0,0,1,.91162-4.94092A4.47557,4.47557,0,0,1,84.2041,61.4624,10.45608,10.45608,0,0,1,85.96,61.32764a3.94559,3.94559,0,0,1,3.02734,1.02393,4.48491,4.48491,0,0,1,.9458,3.12891,3.87278,3.87278,0,0,1-.48437,2.11621,4.78119,4.78119,0,0,1-.42725.53467,2.30135,2.30135,0,0,1-.99609.52881,9.73607,9.73607,0,0,1-1.66016.35449,34.302,34.302,0,0,1-3.99561.18018,3.75454,3.75454,0,0,0,.93408,2.58887,3.09074,3.09074,0,0,0,2.0708.54,16.21694,16.21694,0,0,0,2.75781-.23633L88.166,71.502a.2699.2699,0,0,1,.06152-.17969.45776.45776,0,0,1,.186-.0791l1.62061-.35986a.24526.24526,0,0,1,.28125.21387q.03369.19116.06787.748.03369.55737.06738.9624t.05615.77686l.04492.63037c.00781.1875.01172.34473.01172.47266q0,.33765-.49561.39355l-1.86816.22559a.21916.21916,0,0,1-.24756-.248Zm-.69238-7.97461a4.59866,4.59866,0,0,0,.062-.81006,3.65543,3.65543,0,0,0-.08447-.82764,1.56609,1.56609,0,0,0-.28711-.61865,1.73677,1.73677,0,0,0-1.4292-.54053,2.86393,2.86393,0,0,0-2.55518.96826,6.18116,6.18116,0,0,0-.67529,3.10645q3.928-.0564,4.61475-.67578A1.03562,1.03562,0,0,0,87.30469,66.2627Z"/><path class="a" d="M93.814,62.44189a3.38616,3.38616,0,0,1,1.21582-.81641,4.76557,4.76557,0,0,1,1.79492-.29785,9.84081,9.84081,0,0,1,2.36914.32617l2.11621-.394a.25246.25246,0,0,1,.2251.24756l.19141,4.00684q-.02271.27026-.24756.3042l-1.87988.24756q-.23657,0-.23633-.24756V63.916a6.7593,6.7593,0,0,0-1.542-.16895,3.61508,3.61508,0,0,0-1.44629.27051,2.13435,2.13435,0,0,0-.97363.81006,6.35176,6.35176,0,0,0-.60742,3.25293q0,3.46655,1.418,3.95068a3.12828,3.12828,0,0,0,1.03564.15723,10.19776,10.19776,0,0,0,1.93555-.21338l.04492-.77686c.01514-.18018.09375-.27734.23682-.29248l1.77832.06738c.105.01514.16455.10107.17969.25879l.20264,3.52295q0,.23657-.2251.23633H99.23926q-.16919,0-.19141-.21387l.03369-.6416q-4.07446.79907-5.59375-1.13672a7.4295,7.4295,0,0,1-1.08057-4.51318,19.53978,19.53978,0,0,1,.18018-3.10645,8.633,8.633,0,0,1,.46143-1.72217A3.885,3.885,0,0,1,93.814,62.44189Z"/><path class="a" d="M103.68262,67.97949a13.421,13.421,0,0,1,.3208-3.20215,5.14442,5.14442,0,0,1,.95117-2.043A4.73874,4.73874,0,0,1,108.77,61.3501a7.20158,7.20158,0,0,1,2.6958.37109,4.527,4.527,0,0,1,1.33936.84424,4.07554,4.07554,0,0,1,.83838,1.21582,9.16081,9.16081,0,0,1,.69775,3.8208,15.08888,15.08888,0,0,1-.3208,3.55127,4.9451,4.9451,0,0,1-.9624,2.00342,4.86333,4.86333,0,0,1-3.86035,1.373,5.35775,5.35775,0,0,1-4.063-1.35059Q103.68237,71.64844,103.68262,67.97949Zm7.665,3.5a3.17136,3.17136,0,0,0,.50635-1.26025,9.87569,9.87569,0,0,0,.16895-1.981,11.60284,11.60284,0,0,0-.124-1.89111,4.88923,4.88923,0,0,0-.34326-1.19873,2.28968,2.28968,0,0,0-.52344-.75391,2.05171,2.05171,0,0,0-.66406-.41064,4.15035,4.15035,0,0,0-1.4292-.20264,5.96164,5.96164,0,0,0-1.418.13477,1.6011,1.6011,0,0,0-.87793.57422,6.09222,6.09222,0,0,0-.66406,3.44385q0,3.68042,1.981,4.15332a5.60662,5.60662,0,0,0,1.31641.14648,4.31092,4.31092,0,0,0,1.22119-.15234A1.61532,1.61532,0,0,0,111.34766,71.47949Z"/><path class="a" d="M126.75342,63.04932a5.54467,5.54467,0,0,1,3.66943-1.69922,2.89529,2.89529,0,0,1,3.1626,2.53223,8.14293,8.14293,0,0,1,.16895,1.61523q0,.78223-.01709,1.55859-.01685.7771-.05078,1.666l-.06738,1.78955q-.03369.90088-.06738,1.63184l1.63184-.10107q.23657,0,.23633.27l-.2251,1.87939c0,.09033-.02051.14844-.062.1748a.45791.45791,0,0,1-.19678.05078l-3.36523-.09033c-.17285,0-.25879-.08252-.25879-.24756q.03369-1.23779.03369-2.251l.02246-1.77832V66.6626a4.91171,4.91171,0,0,0-.231-1.90234,1.33021,1.33021,0,0,0-.55713-.60205,2.17,2.17,0,0,0-.94531-.16309,5.20993,5.20993,0,0,0-2.41992.72021,8.55288,8.55288,0,0,1,.0791,1.21q0,.65845-.01123,1.44043-.01172.783-.02832,1.64893l-.03369,1.7334q-.01685.86646-.03955,1.55322l1.47461-.03369c.15723,0,.23633.08984.23633.27l-.11279,1.542a.22861.22861,0,0,1-.06738.17432.40328.40328,0,0,1-.19141.05078l-4.17578-.08984c-.15723,0-.23633-.08252-.23633-.248l-.05615-1.57568a.22752.22752,0,0,1,.24756-.23633l.69775.05664q.02271-1.55347.02246-2.7915V66.6626a4.60717,4.60717,0,0,0-.25293-1.90234,1.48585,1.48585,0,0,0-.59082-.63574,1.94414,1.94414,0,0,0-.88916-.1748,4.87777,4.87777,0,0,0-2.87012,1.13672v7.001l1.18164-.05615a.16912.16912,0,0,1,.19141.19141l.12354,1.74414q-.04468.24829-.24756.248l-4.61426-.11279q-.25928,0-.25928-.27l-.1123-1.72217q.04468-.23657.24756-.23633h1.0918V64.46777h-1.72217q-.22485,0-.2251-.27051l-.02246-2.14941a.29225.29225,0,0,1,.27-.23633l2.83643.10107a.2943.2943,0,0,1,.25879.25879l.32666,1.49707a6.06677,6.06677,0,0,1,4.20361-2.20605A2.82055,2.82055,0,0,1,126.75342,63.04932Z"/><path class="a" d="M137.37646,74.4624c-.10547,0-.15771-.09033-.15771-.27051V72.49268q0-.21387.18018-.21387h1.35059l.08984-7.86768-1.82324-.19092a.21513.21513,0,0,1-.20264-.248l.24756-1.85693a.29225.29225,0,0,1,.27-.23633l3.61328-.37158c.08252,0,.13477.021.15723.062a.5318.5318,0,0,1,.04541.19727l.146,2.04834-.03369,8.46387h1.2832q.18018,0,.18018.21387L142.52,73.9668a.28271.28271,0,0,1-.07324.1748.39172.39172,0,0,1-.19678.05029Zm3.5-15.4873a1.21822,1.21822,0,0,1-.57373.2251,5.66641,5.66641,0,0,1-.86133.05615,3.919,3.919,0,0,1-.76514-.05615.87178.87178,0,0,1-.42187-.20264,1.3763,1.3763,0,0,1-.25928-.95654,4.62387,4.62387,0,0,1,.07324-.98486.85181.85181,0,0,1,.27588-.46729,1.77787,1.77787,0,0,1,1.14258-.29248,9.03716,9.03716,0,0,1,1.06348.03955.7765.7765,0,0,1,.42773.18555,1.24634,1.24634,0,0,1,.27.94531,4.71574,4.71574,0,0,1-.07861,1.02441A.86063.86063,0,0,1,140.87646,58.9751Z"/><path class="a" d="M151.71289,64.14111a6.2758,6.2758,0,0,0-3.26416,1.17041l.13525,6.74219,1.22705-.13525a.169.169,0,0,1,.19092.19141l-.21387,1.74463q-.04468.24756-.24756.24756h-4.69336q-.18018,0-.18018-.27l.2251-1.72217q.04541-.23657.248-.23633h.95654V64.43408l-1.72217-.04541q-.22485,0-.2251-.27l.20264-1.94727q.02271-.19116.27-.23633l3.11768-.46143q.20288,0,.20264.25879v1.94727a6.62332,6.62332,0,0,1,4.55859-2.31836,2.79542,2.79542,0,0,1,3.061,2.44238,7.92262,7.92262,0,0,1,.15771,1.51367q0,.70386-.01123,1.18164-.011.479-.03369,1.05273l-.02246,1.17041q-.02271.6189-.04492,1.23779l-.04541,1.19336q-.022.57422-.04492,1.05811l1.29443-.05664q.23657,0,.23633.27051v1.6543c0,.08984-.02051.14844-.062.17432a.44427.44427,0,0,1-.19678.05078l-3.26416.24756a.21881.21881,0,0,1-.24756-.24756q.03369-1.22681.03369-2.30713l.02246-1.87988V66.561a4.14711,4.14711,0,0,0-.23633-1.78369,1.16513,1.16513,0,0,0-.55127-.51221A2.32064,2.32064,0,0,0,151.71289,64.14111Z"/><path class="a" d="M169.978,61.4624q.30322,0,.32617.40527l-.14648,1.76709a.23243.23243,0,0,1-.25879.23633l-2.02588-.394a3.623,3.623,0,0,1,1.20459,2.31885,5.98513,5.98513,0,0,1-.27588,1.874,3.29263,3.29263,0,0,1-.895,1.41211,5.59739,5.59739,0,0,1-3.92773,1.1709,7.53,7.53,0,0,1-1.91357-.2251,2.6807,2.6807,0,0,0-.27,1.0127,1.97534,1.97534,0,0,0,.05615.563.49194.49194,0,0,0,.2251.27,1.77446,1.77446,0,0,0,.92871.19141q.62476,0,1.17578-.03369,1.42969-.06738,2.29053-.06787a4.09231,4.09231,0,0,1,1.55322.28174,3.0099,3.0099,0,0,1,1.12012.75391,3.50755,3.50755,0,0,1,.833,2.44238,3.69094,3.69094,0,0,1-1.47461,3.02783,7.11616,7.11616,0,0,1-4.54736,1.29443,7.826,7.826,0,0,1-3.5791-.61914,2.2952,2.2952,0,0,1-1.27148-2.1499,5.29656,5.29656,0,0,1,1.29395-3.14014,1.738,1.738,0,0,1-.90039-1.6377,4.60545,4.60545,0,0,1,1.30566-2.707,3.854,3.854,0,0,1-1.82324-3.63525,4.15775,4.15775,0,0,1,1.49707-3.45557,5.74743,5.74743,0,0,1,3.68018-1.06885q1.21582,0,2.22852.03369Q168.75073,61.46216,169.978,61.4624Zm-3.30908,5.22266a3.64192,3.64192,0,0,0,.12354-.96826,2.96747,2.96747,0,0,0-.15186-.9624,1.94858,1.94858,0,0,0-.46729-.75928,2.63544,2.63544,0,0,0-1.94678-.67529,2.591,2.591,0,0,0-2.645,1.373,3.03185,3.03185,0,0,0-.21387,1.2041q0,2.30786,2.85889,2.30762Q166.22974,68.20459,166.66895,66.68506Zm-1.002,7.50684-3.084.09033q-.45044,0-.79883-.03369a4.72083,4.72083,0,0,0-.37158,1.78955,1.2467,1.2467,0,0,0,.68652,1.22119,4.19875,4.19875,0,0,0,1.85693.34326,8.9604,8.9604,0,0,0,1.8125-.14062,3.91051,3.91051,0,0,0,1.08008-.38867,1.53707,1.53707,0,0,0,.87793-1.35059,1.345,1.345,0,0,0-.29248-.99023A2.4525,2.4525,0,0,0,165.667,74.19189Z"/><path class="a" d="M184.71826,61.3501q3.33105,0,3.33154,4.1416,0,.97925-.04541,2.53271l-.07861,2.20605q-.02271.66431-.05615,1.26025l-.04492,1.06934.67529-.05615q.37134-.02271.84375-.06738.23657,0,.23682.21387l-.20264,1.77832a.253.253,0,0,1-.248.2251l-3.25244.20215c-.10547,0-.15771-.08252-.15771-.24756l.15771-1.31689a6.5447,6.5447,0,0,1-4.08594,1.45215,4.08032,4.08032,0,0,1-2.83594-1.002,3.63009,3.63009,0,0,1-1.18213-2.84717,3.48246,3.48246,0,0,1,1.60986-3.27539,9.70515,9.70515,0,0,1,4.6709-.833q.67529,0,1.44043.03369.011-.29224.01123-.54v-.42773q0-2.19507-1.9248-2.19482a6.77164,6.77164,0,0,0-2.47607.60791l.04541.42773c.01465.14258.02246.25488.02246.3374a.219.219,0,0,1-.24756.24756l-1.90234.03369a.25169.25169,0,0,1-.2251-.24756l-.19141-3.21875a.26736.26736,0,0,1,.24756-.30371l1.87988-.248c.15723,0,.23633.083.23633.248v.93408A7.75864,7.75864,0,0,1,184.71826,61.3501Zm-2.13867,11.26611a6.67517,6.67517,0,0,0,2.84766-.74268q.022-.74268.02783-1.6377t.02832-1.77246a11.39653,11.39653,0,0,0-4.10791.50635,1.61756,1.61756,0,0,0-1.05811,1.57568Q180.31738,72.6167,182.57959,72.61621Z"/><path class="a" d="M199.80664,56.35254q.20288,0,.20264.25879l-.18018,5.43652.66406-.23633a8.12628,8.12628,0,0,1,2.583-.46143,5.22649,5.22649,0,0,1,2.12744.40479,3.44689,3.44689,0,0,1,1.48,1.22705,8.88705,8.88705,0,0,1,1.0127,4.8623,8.64164,8.64164,0,0,1-1.13672,4.96924,3.98594,3.98594,0,0,1-3.47754,1.59229,9.1553,9.1553,0,0,1-3.14014-.52881,5.54863,5.54863,0,0,1-1.99219.6416q-.37134,0-.37158-.42773V58.89648l-1.64307-.09033a.20765.20765,0,0,1-.2251-.21387l-.13525-1.74463a.26946.26946,0,0,1,.25879-.2251Zm4.11963,7.64258a4.43253,4.43253,0,0,0-1.59277-.21387,8.81947,8.81947,0,0,0-2.53809.4502l.13525,7.61963a11.30754,11.30754,0,0,0,2.31836.29248,4.471,4.471,0,0,0,1.49121-.19678,1.80608,1.80608,0,0,0,.87256-.68115,6.19847,6.19847,0,0,0,.65283-3.354,6.809,6.809,0,0,0-.51807-3.21875A1.7289,1.7289,0,0,0,203.92627,63.99512Z"/><path class="a" d="M217.94824,74.2373a15.46912,15.46912,0,0,1-3.6582.35986,3.8022,3.8022,0,0,1-3.28613-1.39551,7.84136,7.84136,0,0,1-1.06934-4.60352,10.44337,10.44337,0,0,1,.91113-4.94092,4.47648,4.47648,0,0,1,3.30957-2.19482,10.46023,10.46023,0,0,1,1.75586-.13477,3.94631,3.94631,0,0,1,3.02734,1.02393,4.48251,4.48251,0,0,1,.94531,3.12891,3.87761,3.87761,0,0,1-.4834,2.11621,4.84912,4.84912,0,0,1-.42773.53467,2.30739,2.30739,0,0,1-.99609.52881,9.74633,9.74633,0,0,1-1.66016.35449,34.294,34.294,0,0,1-3.99609.18018,3.7568,3.7568,0,0,0,.93457,2.58887,3.09137,3.09137,0,0,0,2.07129.54,16.20132,16.20132,0,0,0,2.75684-.23633l.03418-.58545a.2699.2699,0,0,1,.06152-.17969.4582.4582,0,0,1,.18555-.0791l1.62109-.35986a.24526.24526,0,0,1,.28125.21387q.03369.19116.06738.748.03369.55737.06738.9624.03516.405.05664.77686l.04492.63037c.00781.1875.01172.34473.01172.47266q0,.33765-.49512.39355l-1.86914.22559a.21881.21881,0,0,1-.24707-.248Zm-.69238-7.97461a4.6417,4.6417,0,0,0,.0625-.81006,3.626,3.626,0,0,0-.085-.82764,1.56609,1.56609,0,0,0-.28711-.61865,1.7359,1.7359,0,0,0-1.42969-.54053,2.8635,2.8635,0,0,0-2.55469.96826,6.1715,6.1715,0,0,0-.6748,3.10645q3.92725-.0564,4.61426-.67578A1.03562,1.03562,0,0,0,217.25586,66.2627Z"/><path class="a" d="M228.14258,74.2373q-.53906.03369-1.5918.03369a5.65889,5.65889,0,0,1-1.71094-.21387,2.44778,2.44778,0,0,1-1.08594-.68652,4.40784,4.40784,0,0,1-.84473-3.00537q0-1.33887.03906-2.56055.03955-1.22095.06836-2.17236.02783-.95068.06152-1.88525l-1.49707-.1123c-.15039-.00732-.22461-.10889-.22461-.30371l-.01172-1.29443a.21916.21916,0,0,1,.248-.24756l1.5752-.03418q.02344-.58447.04492-1.11426l.09082-1.69922a2.27569,2.27569,0,0,1,.08984-.68115.279.279,0,0,1,.20215-.10693l2.09375-.24756c.15723,0,.23633.08252.23633.24756q0,.36035-.124,1.63232l-.16895,1.90186,4.41211-.12354c.165,0,.248.08984.248.27v1.83447c0,.15039-.083.229-.248.23633l-4.55859-.19141q-.19043,2.63379-.19141,4.59229a22.63815,22.63815,0,0,0,.085,2.53223,2.03783,2.03783,0,0,0,.30957.88916,1.91763,1.91763,0,0,0,1.63184.54053q.36035,0,.65332-.02246c-.02344-.2627-.03418-.45947-.03418-.59082a.2182.2182,0,0,1,.21387-.231l1.87988-.2251c.15723,0,.23633.08643.23633.25879l.04492,2.85889a.20117.20117,0,0,1-.16895.2251l-1.666.27c-.17285-.01514-.26953-.08643-.292-.21387Z"/><path class="a" d="M237.14453,74.2373q-.53906.03369-1.5918.03369a5.65889,5.65889,0,0,1-1.71094-.21387,2.44778,2.44778,0,0,1-1.08594-.68652,4.40784,4.40784,0,0,1-.84473-3.00537q0-1.33887.03906-2.56055.03955-1.22095.06836-2.17236.02783-.95068.06152-1.88525l-1.49707-.1123c-.15039-.00732-.22461-.10889-.22461-.30371l-.01172-1.29443a.21916.21916,0,0,1,.248-.24756l1.5752-.03418q.02344-.58447.04492-1.11426l.09082-1.69922a2.27569,2.27569,0,0,1,.08984-.68115.279.279,0,0,1,.20215-.10693l2.09375-.24756c.15723,0,.23633.08252.23633.24756q0,.36035-.124,1.63232l-.16895,1.90186,4.41211-.12354c.165,0,.248.08984.248.27v1.83447c0,.15039-.083.229-.248.23633l-4.55859-.19141q-.19043,2.63379-.19141,4.59229a22.63815,22.63815,0,0,0,.085,2.53223,2.03783,2.03783,0,0,0,.30957.88916,1.91763,1.91763,0,0,0,1.63184.54053q.36035,0,.65332-.02246c-.02344-.2627-.03418-.45947-.03418-.59082a.2182.2182,0,0,1,.21387-.231l1.87988-.2251c.15723,0,.23633.08643.23633.25879l.04492,2.85889a.20117.20117,0,0,1-.16895.2251l-1.666.27c-.17285-.01514-.26953-.08643-.292-.21387Z"/><path class="a" d="M248.83691,74.2373a15.46912,15.46912,0,0,1-3.6582.35986,3.8022,3.8022,0,0,1-3.28613-1.39551,7.84136,7.84136,0,0,1-1.06934-4.60352,10.44337,10.44337,0,0,1,.91113-4.94092,4.47648,4.47648,0,0,1,3.30957-2.19482,10.46023,10.46023,0,0,1,1.75586-.13477,3.94631,3.94631,0,0,1,3.02734,1.02393,4.48251,4.48251,0,0,1,.94531,3.12891,3.87761,3.87761,0,0,1-.4834,2.11621,4.84913,4.84913,0,0,1-.42773.53467,2.30739,2.30739,0,0,1-.99609.52881,9.74633,9.74633,0,0,1-1.66016.35449,34.294,34.294,0,0,1-3.99609.18018,3.7568,3.7568,0,0,0,.93457,2.58887,3.09137,3.09137,0,0,0,2.07129.54,16.20132,16.20132,0,0,0,2.75684-.23633l.03418-.58545a.2699.2699,0,0,1,.06152-.17969.4582.4582,0,0,1,.18555-.0791l1.62109-.35986a.24526.24526,0,0,1,.28125.21387q.03369.19116.06738.748.03369.55737.06738.9624.03516.405.05664.77686l.04492.63037c.00781.1875.01172.34473.01172.47266q0,.33765-.49512.39355l-1.86914.22559a.21881.21881,0,0,1-.24707-.248Zm-.69238-7.97461a4.64169,4.64169,0,0,0,.0625-.81006,3.626,3.626,0,0,0-.085-.82764,1.56609,1.56609,0,0,0-.28711-.61865,1.7359,1.7359,0,0,0-1.42969-.54053,2.8635,2.8635,0,0,0-2.55469.96826,6.1715,6.1715,0,0,0-.6748,3.10645q3.92725-.0564,4.61426-.67578A1.03562,1.03562,0,0,0,248.14453,66.2627Z"/><path class="a" d="M253.71875,74.43994c-.12012,0-.17969-.09033-.17969-.27051V72.22266c0-.15771.083-.23633.248-.23633h1.31641V64.36621l-1.60937.13525c-.12012-.00732-.19531-.09766-.22559-.27l-.24707-2.39746a.26634.26634,0,0,1,.26953-.23633l3.45605-.23633q.20215,0,.20215.25879l-.16895,1.85693a6.467,6.467,0,0,1,3.7373-1.86816,7.3852,7.3852,0,0,1,1.42871-.14648q.687,0,.71.36035l.13477,4.11914c0,.13525-.05664.21045-.16895.2251l-2.11621.15771a.43525.43525,0,0,1-.21387-.04492c-.05273-.02979-.07812-.10889-.07812-.23633V64.05127a8.64255,8.64255,0,0,0-2.57812.585l-.124,7.42871,1.959-.14648c.12012,0,.18359.064.19141.19141l.124,1.85693a.26092.26092,0,0,1-.248.248Z"/><path class="a" d="M269.38184,61.92383c0-.1499.08691-.2251.25879-.2251l5.11035-.1123q.20215,0,.20215.24756l.05664,1.91309a.35847.35847,0,0,1-.06738.19141.25866.25866,0,0,1-.17969.04541l-1.47461.03369L276.21387,72.29l2.65625-8.3291-1.542.14648c-.12012,0-.18359-.06348-.19141-.19141l.10156-2.082a.2253.2253,0,0,1,.248-.24756l4.918-.11279c.12012.00781.18066.09766.18066.27l-.11328,1.94727a.22688.22688,0,0,1-.24707.23633l-.99023-.08984-5.42578,15.30713q-.08936.27026-.26953.27l-2.22852-.60791c-.165-.02246-.248-.09766-.248-.2251a.32126.32126,0,0,1,.04492-.15723l2.46484-4.71631-.96777.03369c-.09766,0-.17969-.06738-.24707-.20215l-3.78223-9.46582-1.06934.02246c-.15723,0-.23633-.08984-.23633-.27Z"/><path class="a" d="M283.48242,67.97949a13.42374,13.42374,0,0,1,.32031-3.20215,5.15109,5.15109,0,0,1,.95117-2.043,4.73807,4.73807,0,0,1,3.81543-1.38428,7.19692,7.19692,0,0,1,2.69531.37109,4.52364,4.52364,0,0,1,1.33984.84424,4.09442,4.09442,0,0,1,.83887,1.21582,9.169,9.169,0,0,1,.69727,3.8208,15.09349,15.09349,0,0,1-.32031,3.55127,4.94546,4.94546,0,0,1-.96289,2.00342,4.86264,4.86264,0,0,1-3.86035,1.373,5.35971,5.35971,0,0,1-4.06348-1.35059Q283.48193,71.64844,283.48242,67.97949Zm7.66406,3.5a3.16413,3.16413,0,0,0,.50684-1.26025,9.9118,9.9118,0,0,0,.16895-1.981,11.54788,11.54788,0,0,0-.124-1.89111,4.95584,4.95584,0,0,0-.34277-1.19873,2.30423,2.30423,0,0,0-.52344-.75391,2.06727,2.06727,0,0,0-.66406-.41064,4.1553,4.1553,0,0,0-1.42969-.20264,5.96164,5.96164,0,0,0-1.418.13477,1.60281,1.60281,0,0,0-.87793.57422,6.088,6.088,0,0,0-.66406,3.44385q0,3.68042,1.98047,4.15332a5.618,5.618,0,0,0,1.31738.14648,4.31209,4.31209,0,0,0,1.2207-.15234A1.61229,1.61229,0,0,0,291.14648,71.47949Z"/><path class="a" d="M306.16992,61.92383c.12012,0,.18066.09033.18066.27l.1123,9.49951,1.50781-.05615c.15039.00732.22559.09766.22559.27l-.20312,2.05957c-.00684.15771-.09766.23682-.26953.23682h-2.78027q-.34863,0-.46191-.42773l-.26953-1.13721a6.30695,6.30695,0,0,1-4.23242,1.59863q-3.31934,0-3.32031-4.24316,0-1.47437.16895-3.28662l.22559-2.54395-1.44141.04541c-.15723,0-.23633-.09033-.23633-.27051l.22559-1.99219a.277.277,0,0,1,.07324-.17432.368.368,0,0,1,.18555-.05078l3.5791.09033c.10547,0,.15723.08252.15723.24756q-.05566.53979-.1123,1.21533-.47314,5.07642-.47266,6.26953a2.67183,2.67183,0,0,0,.4502,1.72754,2.03648,2.03648,0,0,0,1.62109.53467,6.03277,6.03277,0,0,0,2.98242-1.14795V64.186l-1.40723-.07861a.21591.21591,0,0,1-.19141-.19141l.21387-1.85693c.03027-.165.11328-.24756.248-.24756Z"/><path class="a" d="M51.14543,75.75354v-.00168h1.59V28.20893c.04208-.60855.07154-1.22132.07154-1.84081A26.42935,26.42935,0,0,0,0,24.7773V49.20277A26.579,26.579,0,0,0,26.54909,75.75186H51.08482C51.105,75.75186,51.12522,75.75354,51.14543,75.75354ZM3.18081,38.77571A26.40289,26.40289,0,0,0,24.8337,52.68322,26.60625,26.60625,0,0,0,38.5535,72.571H26.54826A23.39411,23.39411,0,0,1,3.18081,49.20277ZM28.03975,52.68322A26.40069,26.40069,0,0,0,49.5546,39.04V72.51213A23.40481,23.40481,0,0,1,28.03975,52.68322ZM46.61789,14.9689a13.80151,13.80151,0,0,0-20.17906,5.19333,13.8011,13.8011,0,0,0-20.1799-5.19248,23.16661,23.16661,0,0,1,40.359-.00084ZM49.62531,26.369a23.18648,23.18648,0,0,1-46.373,0A10.82345,10.82345,0,0,1,14.08848,15.71213,10.66869,10.66869,0,0,1,24.74532,26.369h.032V36.75562h3.18081V26.369a10.83507,10.83507,0,0,1,21.6672,0Z"/><path class="a" d="M14.15245,30.761h3.96107V26.79992a3.24663,3.24663,0,0,0-3.24646-3.24646H10.906v3.96107A3.24663,3.24663,0,0,0,14.15245,30.761Z"/><path class="a" d="M41.97251,27.51453V23.55346H38.01144A3.24663,3.24663,0,0,0,34.765,26.79992V30.761h3.96107A3.24555,3.24555,0,0,0,41.97251,27.51453Z"/></svg>