<?xml version="1.0" encoding="utf-8"?>
<!-- Generator: Adobe Illustrator 21.1.0, SVG Export Plug-In . SVG Version: 6.00 Build 0)  -->
<svg version="1.1" id="Layer_1" xmlns="http://www.w3.org/2000/svg" xmlns:xlink="http://www.w3.org/1999/xlink" x="0px" y="0px"
	 viewBox="0 0 32 32" style="enable-background:new 0 0 32 32;" xml:space="preserve">
<g transform="scale(0.03125 0.03125)">
	<path d="M448,304c0-26.4,21.6-48,48-48h32c26.4,0,48,21.6,48,48v32c0,26.4-21.6,48-48,48h-32c-26.4,0-48-21.6-48-48V304z"/>
	<path d="M640,768H384v-64h64V512h-64v-64h192v256h64V768z"/>
	<path d="M512,0C229.2,0,0,229.2,0,512s229.2,512,512,512s512-229.2,512-512S794.8,0,512,0z M512,928C282.2,928,96,741.8,96,512
		S282.2,96,512,96s416,186.2,416,416S741.8,928,512,928z"/>
</g>
</svg>
